<svg xmlns="http://www.w3.org/2000/svg" width="282.888" height="254.986" viewBox="0 0 282.888 254.986">
  <g id="グループ_5863" data-name="グループ 5863" transform="translate(-1617.249 -175.816)">
    <path id="パス_3200" data-name="パス 3200" d="M111.515,62.429S97.024,32.74,61.542,29.844,23.886,45.05,41.991,58.808C66.033,74.364,70.416,40.153,52.135,17.535,44.084,7.566,24.609-1.291,0,.156" transform="matrix(0.616, -0.788, 0.788, 0.616, 1781.362, 264.357)" fill="none" stroke="#252525" stroke-width="1"/>
    <g id="グループ_5862" data-name="グループ 5862" transform="translate(-1.322)">
      <g id="グループ_5861" data-name="グループ 5861" transform="matrix(0.602, 0.799, -0.799, 0.602, 959.089, -1262.044)">
        <g id="パス_5131" data-name="パス 5131" transform="matrix(-0.616, 0.788, -0.788, -0.616, 1737.987, 351.624)" fill="#fff09f">
          <path d="M 16.22230529785156 72.35817718505859 C 13.62659645080566 72.35817718505859 10.48535919189453 71.79503631591797 7.37726879119873 70.77246856689453 C 3.817268848419189 69.60123443603516 0.3520869314670563 67.85103607177734 -2.6436767578125 65.71110534667969 C -6.081076622009277 63.25566864013672 -8.897294998168945 60.32001495361328 -11.01409530639648 56.9857063293457 C -13.41667652130127 53.20121383666992 -14.8980770111084 48.91156005859375 -15.4171314239502 44.23592376708984 C -16.00711250305176 38.92145156860352 -15.68351268768311 33.9342155456543 -14.45527648925781 29.41274261474609 C -13.35349464416504 25.35672378540039 -11.53025817871094 21.68492317199707 -9.03620433807373 18.49932289123535 C -6.748513221740723 15.57726955413818 -3.956676721572876 13.1289234161377 -0.7382585406303406 11.22226905822754 C 2.243741512298584 9.455669403076172 5.563068866729736 8.20134162902832 8.860904693603516 7.594887256622314 C 10.55350494384766 7.283632755279541 12.29934120178223 6.96065092086792 14.09072303771973 6.629232883453369 C 27.34174156188965 4.17772388458252 43.83306884765625 1.126723766326904 59.24492263793945 -0.9055853486061096 C 60.31717681884766 -1.046985387802124 61.40861511230469 -1.11867618560791 62.48888778686523 -1.11867618560791 C 69.381103515625 -1.11867618560791 76.27639770507812 1.786978363990784 81.904541015625 7.063032627105713 C 87.61945343017578 12.42039680480957 91.55207061767578 19.75697898864746 92.97798156738281 27.72126960754395 C 93.70124816894531 31.76099586486816 93.4249267578125 35.95865249633789 92.15665435791016 40.19761276245117 C 91.00244903564453 44.05537796020508 88.99372100830078 47.95490646362305 86.34759521484375 51.47463226318359 C 83.86836242675781 54.77236175537109 80.86288452148438 57.71283340454102 77.65606689453125 59.97814178466797 C 74.59796142578125 62.1384162902832 71.51577758789062 63.58124923706055 68.74270629882812 64.15070343017578 C 59.9726676940918 65.95159912109375 44.82028579711914 68.20830535888672 32.64512252807617 70.02159881591797 C 26.79155921936035 70.89337921142578 21.73624992370605 71.64628601074219 18.39652252197266 72.19877624511719 C 17.75717735290527 72.30455780029297 17.02565002441406 72.35817718505859 16.22230529785156 72.35817718505859 Z" stroke="none"/>
          <path d="M 62.48889541625977 2.381301879882812 C 61.56646347045898 2.381301879882812 60.63503265380859 2.441375732421875 59.70250701904297 2.564353942871094 C 44.38037490844727 4.584854125976562 27.93828201293945 7.626735687255859 14.72682952880859 10.07091903686523 L 9.493919372558594 11.03717041015625 C -2.341377258300781 13.213623046875 -14.09660339355469 24.41010284423828 -11.93853759765625 43.84973907470703 C -9.976577758789062 61.52251052856445 7.370780944824219 68.85819244384766 16.22230529785156 68.85819244384766 C 16.80446243286133 68.85819244384766 17.34348678588867 68.82541656494141 17.82528305053711 68.74571228027344 C 21.16316986083984 68.19351196289062 26.28285217285156 67.43053436279297 32.12939453125 66.55978393554688 C 44.26241683959961 64.75278472900391 59.36237335205078 62.50389862060547 68.03868865966797 60.72221374511719 C 77.28512573242188 58.823486328125 92.37107849121094 44.19119262695312 89.53276062011719 28.33810043334961 C 86.92682647705078 13.78289794921875 75.04776000976562 2.381301879882812 62.48889541625977 2.381301879882812 M 62.48888397216797 -4.618690490722656 C 78.61614227294922 -4.618690490722656 93.20848083496094 9.148944854736328 96.42318725585938 27.10446548461914 C 99.88218688964844 46.42425918579102 82.54830169677734 64.88878631591797 69.44673919677734 67.57914733886719 C 56.34516906738281 70.26953125 29.20703125 73.95793914794922 18.96778106689453 75.65184783935547 C 8.728469848632812 77.34575653076172 -16.21706390380859 68.75151062011719 -18.89578247070312 44.62210083007812 C -21.57449340820312 20.49271392822266 -6.315078735351562 6.826988220214844 8.227874755859375 4.152603149414062 C 22.77085113525391 1.478218078613281 41.2453498840332 -2.062332153320312 58.78734970092773 -4.375556945800781 C 60.026123046875 -4.538909912109375 61.26348114013672 -4.618690490722656 62.48888397216797 -4.618690490722656 Z" stroke="none" fill="#000"/>
        </g>
        <path id="パス_5132" data-name="パス 5132" d="M-14795.911-697.806l26.009,14.151" transform="translate(16488 1016)" fill="none" stroke="#000" stroke-linecap="round" stroke-width="4"/>
        <path id="パス_5133" data-name="パス 5133" d="M-14800.269-700.675l35.931,19.834" transform="translate(16481.922 1026)" fill="none" stroke="#000" stroke-linecap="round" stroke-width="4"/>
        <path id="パス_5134" data-name="パス 5134" d="M-14800.269-700.675l35.931,19.834" transform="translate(16476.922 1035.917)" fill="none" stroke="#000" stroke-linecap="round" stroke-width="4"/>
        <path id="パス_5135" data-name="パス 5135" d="M-14800.269-700.675l35.931,19.834" transform="translate(16470.922 1045.834)" fill="none" stroke="#000" stroke-linecap="round" stroke-width="4"/>
        <path id="パス_5136" data-name="パス 5136" d="M-14800.269-700.675l35.931,19.834" transform="translate(16465.922 1055.751)" fill="none" stroke="#000" stroke-linecap="round" stroke-width="4"/>
        <path id="パス_5137" data-name="パス 5137" d="M-14800.269-700.675l35.931,19.834" transform="translate(16459.922 1065.668)" fill="none" stroke="#000" stroke-linecap="round" stroke-width="4"/>
        <path id="パス_5138" data-name="パス 5138" d="M-14800.269-700.675l35.931,19.834" transform="translate(16454.922 1075.585)" fill="none" stroke="#000" stroke-linecap="round" stroke-width="4"/>
        <path id="パス_5139" data-name="パス 5139" d="M-14800-700.82l26.3,14.364" transform="translate(16453.922 1088.585)" fill="none" stroke="#000" stroke-linecap="round" stroke-width="4"/>
      </g>
      <g id="グループ_5860" data-name="グループ 5860">
        <g id="パス_5131-2" data-name="パス 5131" transform="matrix(-0.616, 0.788, -0.788, -0.616, 1737.987, 351.624)" fill="#fff09f">
          <path d="M 16.22230529785156 72.35817718505859 C 13.62659645080566 72.35817718505859 10.48535919189453 71.79503631591797 7.37726879119873 70.77246856689453 C 3.817268848419189 69.60123443603516 0.3520869314670563 67.85103607177734 -2.6436767578125 65.71110534667969 C -6.081076622009277 63.25566864013672 -8.897294998168945 60.32001495361328 -11.01409530639648 56.9857063293457 C -13.41667652130127 53.20121383666992 -14.8980770111084 48.91156005859375 -15.4171314239502 44.23592376708984 C -16.00711250305176 38.92145156860352 -15.68351268768311 33.9342155456543 -14.45527648925781 29.41274261474609 C -13.35349464416504 25.35672378540039 -11.53025817871094 21.68492317199707 -9.03620433807373 18.49932289123535 C -6.748513221740723 15.57726955413818 -3.956676721572876 13.1289234161377 -0.7382585406303406 11.22226905822754 C 2.243741512298584 9.455669403076172 5.563068866729736 8.20134162902832 8.860904693603516 7.594887256622314 C 10.55350494384766 7.283632755279541 12.29934120178223 6.96065092086792 14.09072303771973 6.629232883453369 C 27.34174156188965 4.17772388458252 43.83306884765625 1.126723766326904 59.24492263793945 -0.9055853486061096 C 60.31717681884766 -1.046985387802124 61.40861511230469 -1.11867618560791 62.48888778686523 -1.11867618560791 C 69.381103515625 -1.11867618560791 76.27639770507812 1.786978363990784 81.904541015625 7.063032627105713 C 87.61945343017578 12.42039680480957 91.55207061767578 19.75697898864746 92.97798156738281 27.72126960754395 C 93.70124816894531 31.76099586486816 93.4249267578125 35.95865249633789 92.15665435791016 40.19761276245117 C 91.00244903564453 44.05537796020508 88.99372100830078 47.95490646362305 86.34759521484375 51.47463226318359 C 83.86836242675781 54.77236175537109 80.86288452148438 57.71283340454102 77.65606689453125 59.97814178466797 C 74.59796142578125 62.1384162902832 71.51577758789062 63.58124923706055 68.74270629882812 64.15070343017578 C 59.9726676940918 65.95159912109375 44.82028579711914 68.20830535888672 32.64512252807617 70.02159881591797 C 26.79155921936035 70.89337921142578 21.73624992370605 71.64628601074219 18.39652252197266 72.19877624511719 C 17.75717735290527 72.30455780029297 17.02565002441406 72.35817718505859 16.22230529785156 72.35817718505859 Z" stroke="none"/>
          <path d="M 62.48889541625977 2.381301879882812 C 61.56646347045898 2.381301879882812 60.63503265380859 2.441375732421875 59.70250701904297 2.564353942871094 C 44.38037490844727 4.584854125976562 27.93828201293945 7.626735687255859 14.72682952880859 10.07091903686523 L 9.493919372558594 11.03717041015625 C -2.341377258300781 13.213623046875 -14.09660339355469 24.41010284423828 -11.93853759765625 43.84973907470703 C -9.976577758789062 61.52251052856445 7.370780944824219 68.85819244384766 16.22230529785156 68.85819244384766 C 16.80446243286133 68.85819244384766 17.34348678588867 68.82541656494141 17.82528305053711 68.74571228027344 C 21.16316986083984 68.19351196289062 26.28285217285156 67.43053436279297 32.12939453125 66.55978393554688 C 44.26241683959961 64.75278472900391 59.36237335205078 62.50389862060547 68.03868865966797 60.72221374511719 C 77.28512573242188 58.823486328125 92.37107849121094 44.19119262695312 89.53276062011719 28.33810043334961 C 86.92682647705078 13.78289794921875 75.04776000976562 2.381301879882812 62.48889541625977 2.381301879882812 M 62.48888397216797 -4.618690490722656 C 78.61614227294922 -4.618690490722656 93.20848083496094 9.148944854736328 96.42318725585938 27.10446548461914 C 99.88218688964844 46.42425918579102 82.54830169677734 64.88878631591797 69.44673919677734 67.57914733886719 C 56.34516906738281 70.26953125 29.20703125 73.95793914794922 18.96778106689453 75.65184783935547 C 8.728469848632812 77.34575653076172 -16.21706390380859 68.75151062011719 -18.89578247070312 44.62210083007812 C -21.57449340820312 20.49271392822266 -6.315078735351562 6.826988220214844 8.227874755859375 4.152603149414062 C 22.77085113525391 1.478218078613281 41.2453498840332 -2.062332153320312 58.78734970092773 -4.375556945800781 C 60.026123046875 -4.538909912109375 61.26348114013672 -4.618690490722656 62.48888397216797 -4.618690490722656 Z" stroke="none" fill="#000"/>
        </g>
        <path id="パス_5132-2" data-name="パス 5132" d="M-14795.911-697.806l26.009,14.151" transform="translate(16488 1016)" fill="none" stroke="#000" stroke-linecap="round" stroke-width="4"/>
        <path id="パス_5133-2" data-name="パス 5133" d="M-14800.269-700.675l35.931,19.834" transform="translate(16481.922 1026)" fill="none" stroke="#000" stroke-linecap="round" stroke-width="4"/>
        <path id="パス_5134-2" data-name="パス 5134" d="M-14800.269-700.675l35.931,19.834" transform="translate(16476.922 1035.917)" fill="none" stroke="#000" stroke-linecap="round" stroke-width="4"/>
        <path id="パス_5135-2" data-name="パス 5135" d="M-14800.269-700.675l35.931,19.834" transform="translate(16470.922 1045.834)" fill="none" stroke="#000" stroke-linecap="round" stroke-width="4"/>
        <path id="パス_5136-2" data-name="パス 5136" d="M-14800.269-700.675l35.931,19.834" transform="translate(16465.922 1055.751)" fill="none" stroke="#000" stroke-linecap="round" stroke-width="4"/>
        <path id="パス_5137-2" data-name="パス 5137" d="M-14800.269-700.675l35.931,19.834" transform="translate(16459.922 1065.668)" fill="none" stroke="#000" stroke-linecap="round" stroke-width="4"/>
        <path id="パス_5138-2" data-name="パス 5138" d="M-14800.269-700.675l35.931,19.834" transform="translate(16454.922 1075.585)" fill="none" stroke="#000" stroke-linecap="round" stroke-width="4"/>
        <path id="パス_5139-2" data-name="パス 5139" d="M-14800-700.82l26.3,14.364" transform="translate(16453.922 1088.585)" fill="none" stroke="#000" stroke-linecap="round" stroke-width="4"/>
      </g>
    </g>
  </g>
</svg>
