<svg xmlns="http://www.w3.org/2000/svg" xmlns:xlink="http://www.w3.org/1999/xlink" width="1923.454" height="267.951" viewBox="0 0 1923.454 267.951">
  <defs>
    <clipPath id="clip-path">
      <rect id="長方形_3020" data-name="長方形 3020" width="1267" height="267" transform="translate(-14391 1502)" fill="#fff" stroke="#707070" stroke-width="1"/>
    </clipPath>
    <filter id="パス_4967" x="274.682" y="-49.76" width="368.333" height="368.336" filterUnits="userSpaceOnUse">
      <feOffset dy="3" input="SourceAlpha"/>
      <feGaussianBlur stdDeviation="3" result="blur"/>
      <feFlood flood-opacity="0.161"/>
      <feComposite operator="in" in2="blur"/>
      <feComposite in="SourceGraphic"/>
    </filter>
    <filter id="パス_4967-2" x="1437.588" y="16.896" width="185.504" height="185.504" filterUnits="userSpaceOnUse">
      <feOffset dy="3" input="SourceAlpha"/>
      <feGaussianBlur stdDeviation="3" result="blur-2"/>
      <feFlood flood-opacity="0.161"/>
      <feComposite operator="in" in2="blur-2"/>
      <feComposite in="SourceGraphic"/>
    </filter>
    <filter id="パス_4967-3" x="1221.842" y="182.142" width="108.434" height="108.434" filterUnits="userSpaceOnUse">
      <feOffset dy="3" input="SourceAlpha"/>
      <feGaussianBlur stdDeviation="3" result="blur-3"/>
      <feFlood flood-opacity="0.161"/>
      <feComposite operator="in" in2="blur-3"/>
      <feComposite in="SourceGraphic"/>
    </filter>
  </defs>
  <g id="グループ_5871" data-name="グループ 5871" transform="translate(15140.227 -7925.524)">
    <rect id="長方形_3021" data-name="長方形 3021" width="1923.454" height="267.951" transform="translate(-15140.227 7925.524)" fill="#252525"/>
    <g id="マスクグループ_1848" data-name="マスクグループ 1848" transform="translate(-421 6424)" clip-path="url(#clip-path)">
      <g id="グループ_5870" data-name="グループ 5870" transform="translate(-14740.631 -1169.171)">
        <g id="グループ_5644" data-name="グループ 5644" transform="translate(280.687 2641.936)">
          <g id="グループ_5627" data-name="グループ 5627" transform="translate(24.398 -15)" opacity="0.55">
            <g id="_124594_更新済み_" data-name="124594 [更新済み]" transform="translate(128.233 0) rotate(30)" opacity="0.44" style="isolation: isolate">
              <rect id="長方形_2937" data-name="長方形 2937" width="43.862" height="11.748" transform="translate(35.251 130.694)" fill="#fff"/>
              <rect id="長方形_2938" data-name="長方形 2938" width="43.862" height="11.748" transform="translate(35.251 152.622)" fill="#fff"/>
              <rect id="長方形_2939" data-name="長方形 2939" width="43.862" height="11.748" transform="translate(35.251 174.557)" fill="#fff"/>
              <rect id="長方形_2940" data-name="長方形 2940" width="43.868" height="11.748" transform="translate(177.335 130.694)" fill="#fff"/>
              <rect id="長方形_2941" data-name="長方形 2941" width="43.868" height="11.748" transform="translate(177.335 152.622)" fill="#fff"/>
              <rect id="長方形_2942" data-name="長方形 2942" width="43.868" height="11.748" transform="translate(177.335 174.557)" fill="#fff"/>
              <g transform="matrix(0.87, -0.5, 0.5, 0.87, -334.85, 243.85)" filter="url(#パス_4967)">
                <path id="パス_4967-4" data-name="パス 4967" d="M128.227,0A128.233,128.233,0,1,0,256.46,128.233,128.374,128.374,0,0,0,128.227,0Zm48.415,22.422a116.823,116.823,0,0,1,33.483,23.1H176.642Zm-95.291-.74V45.519H46.329A116.9,116.9,0,0,1,81.351,21.682ZM98.756,240.793A115.891,115.891,0,0,1,60.786,223.03H98.756Zm47.193,2.426a117.43,117.43,0,0,1-11.848,1.2V228.152H122.353v16.266a115.747,115.747,0,0,1-11.848-1.2V223.03h35.445Zm11.748-2.426V223.03h37.971A115.835,115.835,0,0,1,157.7,240.793Zm51.951-29.412a5.008,5.008,0,0,0-.5-.1H47.3c-.176,0-.329.088-.5.1A115.931,115.931,0,0,1,36.073,57.267H93.1V17.194a115.543,115.543,0,0,1,71.794.564v39.51h55.493a115.924,115.924,0,0,1-10.738,154.114Z" transform="translate(411.91 -43.76) rotate(30)" fill="#fff"/>
              </g>
              <path id="パス_4969" data-name="パス 4969" d="M59.875,25.208C84.216,36.968,48.568,0,34.667,0S-17.665,38.56,9.459,25.208,35.533,13.448,59.875,25.208Z" transform="translate(138.48 77.872)" fill="#fff"/>
              <path id="パス_4971" data-name="パス 4971" d="M59.875,25.208C84.216,36.968,48.568,0,34.667,0S-17.665,38.56,9.459,25.208,35.533,13.448,59.875,25.208Z" transform="translate(45.884 76.695)" fill="#fff"/>
              <path id="パス_4970" data-name="パス 4970" d="M33.353,26.457a13.917,13.917,0,1,0-11.748.217V41.407L0,63.012l8.306,8.306L27.479,52.145,46.653,71.318l8.306-8.306L33.353,41.4Z" transform="translate(100.748 127.728)" fill="#fff"/>
            </g>
          </g>
        </g>
        <g id="グループ_5640" data-name="グループ 5640" transform="matrix(0.485, -0.875, 0.875, 0.485, 1718.398, 2830.843)">
          <g id="グループ_5627-2" data-name="グループ 5627" transform="translate(-117.378 -255.072)" opacity="0.55">
            <g id="_124594_更新済み_2" data-name="124594 [更新済み]" transform="translate(61.035 0) rotate(30)" opacity="0.44" style="isolation: isolate">
              <rect id="長方形_2937-2" data-name="長方形 2937" width="20.877" height="5.592" transform="translate(16.778 62.207)" fill="#fff"/>
              <rect id="長方形_2938-2" data-name="長方形 2938" width="20.877" height="5.592" transform="translate(16.778 72.644)" fill="#fff"/>
              <rect id="長方形_2939-2" data-name="長方形 2939" width="20.877" height="5.592" transform="translate(16.778 83.084)" fill="#fff"/>
              <rect id="長方形_2940-2" data-name="長方形 2940" width="20.88" height="5.592" transform="translate(84.407 62.207)" fill="#fff"/>
              <rect id="長方形_2941-2" data-name="長方形 2941" width="20.88" height="5.592" transform="translate(84.407 72.644)" fill="#fff"/>
              <rect id="長方形_2942-2" data-name="長方形 2942" width="20.88" height="5.592" transform="translate(84.407 83.084)" fill="#fff"/>
              <g transform="matrix(0.86, 0.52, -0.52, 0.86, -1195.8, -818.56)" filter="url(#パス_4967-2)">
                <path id="パス_4967-5" data-name="パス 4967" d="M61.032,0a61.035,61.035,0,1,0,61.035,61.035A61.1,61.1,0,0,0,61.032,0ZM84.077,10.672a55.6,55.6,0,0,1,15.937,10.994H84.077ZM38.721,10.32V21.666H22.052A55.643,55.643,0,0,1,38.721,10.32Zm8.284,104.291a55.161,55.161,0,0,1-18.073-8.455H47.005Zm22.463,1.155a55.9,55.9,0,0,1-5.639.57v-7.742H58.237v7.742a55.1,55.1,0,0,1-5.639-.57v-9.61H69.468Zm5.592-1.155v-8.455H93.133A55.134,55.134,0,0,1,75.06,114.611Zm24.727-14a2.381,2.381,0,0,0-.238-.048H22.516c-.084,0-.157.042-.238.048A55.18,55.18,0,0,1,17.17,27.258H44.313V8.184a55,55,0,0,1,34.172.268V27.258H104.9a55.177,55.177,0,0,1-5.111,73.354Z" transform="translate(1446.59 85.77) rotate(-31)" fill="#fff"/>
              </g>
              <path id="パス_4969-2" data-name="パス 4969" d="M28.5,12c11.586,5.6-5.382-12-12-12S-8.408,18.354,4.5,12,16.913,6.4,28.5,12Z" transform="translate(65.913 37.065)" fill="#fff"/>
              <path id="パス_4971-2" data-name="パス 4971" d="M28.5,12c11.586,5.6-5.382-12-12-12S-8.408,18.354,4.5,12,16.913,6.4,28.5,12Z" transform="translate(21.839 36.505)" fill="#fff"/>
              <path id="パス_4970-2" data-name="パス 4970" d="M15.875,12.593a6.624,6.624,0,1,0-5.592.1v7.012L0,29.992l3.953,3.953,9.126-9.126,9.126,9.126,3.953-3.953L15.875,19.706Z" transform="translate(47.953 60.795)" fill="#fff"/>
            </g>
          </g>
        </g>
        <g id="_142820_更新済み_" data-name="142820 [更新済み]" transform="translate(1408.354 2767.092) rotate(39)" opacity="0.49">
          <path id="パス_4073" data-name="パス 4073" d="M0,5.689,2.517,7.837A12.874,12.874,0,0,1,12.325,3.31V0A16.183,16.183,0,0,0,0,5.689Z" transform="translate(15.617 13.434)" fill="#fdfdfd"/>
          <path id="パス_4074" data-name="パス 4074" d="M50.419,24.2h-.511A22.707,22.707,0,0,0,33.5,7.7V5.289a5.289,5.289,0,1,0-10.578,0V7.581A22.628,22.628,0,0,0,6,24.2H5.434a5.435,5.435,0,0,0,0,10.87h.481a22.618,22.618,0,0,0,43.919,0h.586a5.435,5.435,0,1,0,0-10.87ZM26.232,5.289a1.979,1.979,0,1,1,3.958,0V7.116a22.316,22.316,0,0,0-2.241-.121c-.579,0-1.15.033-1.719.076V5.289ZM27.952,10.3A19.393,19.393,0,0,1,46.5,24.2H9.4A19.345,19.345,0,0,1,27.952,10.3ZM29.63,48.878V44.063a3.892,3.892,0,1,0-3.406,0v4.82a19.4,19.4,0,0,1-16.9-13.818H46.411A19.266,19.266,0,0,1,29.63,48.878ZM50.419,31.756H5.433a2.126,2.126,0,0,1,0-4.251H50.419a2.126,2.126,0,1,1,0,4.251Z" transform="translate(0 0)" fill="#fdfdfd"/>
        </g>
        <g id="_142820_更新済み_2" data-name="142820 [更新済み]" transform="translate(433.779 2790.685) rotate(-26)" opacity="0.32">
          <path id="パス_4073-2" data-name="パス 4073" d="M0,4.906,2.17,6.758a11.1,11.1,0,0,1,8.457-3.9V0A13.954,13.954,0,0,0,0,4.906Z" transform="translate(192.563 13.993)" fill="#fdfdfd"/>
          <path id="パス_4074-2" data-name="パス 4074" d="M43.475,20.863h-.441A19.58,19.58,0,0,0,28.888,6.639V4.56a4.56,4.56,0,1,0-9.121,0V6.537a19.512,19.512,0,0,0-14.6,14.326H4.686a4.687,4.687,0,0,0,0,9.373H5.1a19.5,19.5,0,0,0,37.871,0h.505a4.687,4.687,0,1,0,0-9.373ZM22.62,4.56a1.707,1.707,0,1,1,3.413,0V6.136a19.245,19.245,0,0,0-1.932-.1c-.5,0-.992.029-1.483.066V4.56ZM24.1,8.885A16.722,16.722,0,0,1,40.1,20.864H8.108A16.681,16.681,0,0,1,24.1,8.885Zm1.447,33.262V37.995a3.356,3.356,0,1,0-2.937,0v4.157A16.731,16.731,0,0,1,8.039,30.236h31.98A16.612,16.612,0,0,1,25.549,42.147ZM43.475,27.383H4.685a1.833,1.833,0,0,1,0-3.666H43.475a1.833,1.833,0,1,1,0,3.666Z" transform="translate(184.379 0)" fill="#fdfdfd"/>
        </g>
        <g id="グループ_5679" data-name="グループ 5679" transform="matrix(0.485, -0.875, 0.875, 0.485, 1236.271, 2921.601)">
          <g id="グループ_5627-3" data-name="グループ 5627" transform="translate(0 0)" opacity="0.55">
            <g id="_124594_更新済み_3" data-name="124594 [更新済み]" transform="translate(32.952 0) rotate(30)" opacity="0.44" style="isolation: isolate">
              <rect id="長方形_2937-3" data-name="長方形 2937" width="11.271" height="3.019" transform="translate(9.059 33.585)" fill="#fff"/>
              <rect id="長方形_2938-3" data-name="長方形 2938" width="11.271" height="3.019" transform="translate(9.059 39.22)" fill="#fff"/>
              <rect id="長方形_2939-3" data-name="長方形 2939" width="11.271" height="3.019" transform="translate(9.059 44.856)" fill="#fff"/>
              <rect id="長方形_2940-3" data-name="長方形 2940" width="11.273" height="3.019" transform="translate(45.57 33.585)" fill="#fff"/>
              <rect id="長方形_2941-3" data-name="長方形 2941" width="11.273" height="3.019" transform="translate(45.57 39.22)" fill="#fff"/>
              <rect id="長方形_2942-3" data-name="長方形 2942" width="11.273" height="3.019" transform="translate(45.57 44.856)" fill="#fff"/>
              <g transform="matrix(0.86, 0.52, -0.52, 0.86, -940.66, -824.29)" filter="url(#パス_4967-3)">
                <path id="パス_4967-6" data-name="パス 4967" d="M32.951,0A32.952,32.952,0,1,0,65.9,32.952,32.989,32.989,0,0,0,32.951,0ZM45.392,5.762A30.02,30.02,0,0,1,54,11.7h-8.6Zm-24.487-.19V11.7h-9A30.041,30.041,0,0,1,20.905,5.572Zm4.473,56.306a29.781,29.781,0,0,1-9.757-4.565h9.757Zm12.127.623a30.178,30.178,0,0,1-3.045.308v-4.18H31.441v4.18A29.745,29.745,0,0,1,28.4,62.5V57.313h9.108Zm3.019-.623V57.313h9.757A29.767,29.767,0,0,1,40.524,61.877Zm13.35-7.558a1.285,1.285,0,0,0-.128-.026H12.156c-.045,0-.085.023-.128.026a29.791,29.791,0,0,1-2.758-39.6H23.924V4.418a29.691,29.691,0,0,1,18.449.145V14.716h14.26a29.789,29.789,0,0,1-2.759,39.6Z" transform="translate(1230.84 222.09) rotate(-31)" fill="#fff"/>
              </g>
              <path id="パス_4969-3" data-name="パス 4969" d="M15.386,6.478C21.641,9.5,12.481,0,8.908,0S-4.539,9.909,2.431,6.478,9.131,3.456,15.386,6.478Z" transform="translate(35.586 20.011)" fill="#fff"/>
              <path id="パス_4971-3" data-name="パス 4971" d="M15.386,6.478C21.641,9.5,12.481,0,8.908,0S-4.539,9.909,2.431,6.478,9.131,3.456,15.386,6.478Z" transform="translate(11.791 19.709)" fill="#fff"/>
              <path id="パス_4970-3" data-name="パス 4970" d="M8.571,6.8a3.576,3.576,0,1,0-3.019.056V10.64L0,16.192l2.134,2.134L7.061,13.4l4.927,4.927,2.134-2.134L8.571,10.639Z" transform="translate(25.889 32.823)" fill="#fff"/>
            </g>
          </g>
        </g>
        <path id="パス_5119" data-name="パス 5119" d="M63.343,27.394H62.7C60.163,18.133,52.09,11.015,42.09,8.718V5.988C42.09,2.687,39.108,0,35.445,0S28.8,2.687,28.8,5.988V8.583C18.472,10.708,10.127,17.912,7.534,27.394H6.828C3.062,27.394,0,30.156,0,33.549S3.062,39.7,6.828,39.7h.6c3.108,11.339,14.514,19.474,27.584,19.474,13.193,0,24.491-8.1,27.593-19.474h.736c3.765,0,6.83-2.76,6.83-6.153S67.109,27.394,63.343,27.394ZM32.957,5.988a2.5,2.5,0,0,1,4.973,0V8.057C37,7.972,36.065,7.92,35.115,7.92c-.728,0-1.445.038-2.16.086V5.988Zm2.16,5.679c10.813,0,20.31,6.516,23.3,15.729H11.813C14.8,18.17,24.258,11.667,35.117,11.667Zm2.108,43.674V49.889a4.384,4.384,0,0,0,2.75-3.946,4.667,4.667,0,0,0-4.89-4.407,4.667,4.667,0,0,0-4.89,4.407,4.383,4.383,0,0,0,2.751,3.946v5.458c-9.94-.77-18.433-7.026-21.233-15.645H58.308C55.531,48.313,47.183,54.533,37.225,55.341ZM63.343,35.955H6.825a2.42,2.42,0,1,1,0-4.813H63.343a2.42,2.42,0,1,1,0,4.813Z" transform="matrix(0.766, 0.643, -0.643, 0.766, 669.059, 2854.469)" fill="#fdfdfd" opacity="0.38"/>
      </g>
    </g>
  </g>
</svg>
