<svg xmlns="http://www.w3.org/2000/svg" xmlns:xlink="http://www.w3.org/1999/xlink" width="375" height="117" viewBox="0 0 375 117">
  <defs>
    <clipPath id="clip-path">
      <rect id="長方形_2883" data-name="長方形 2883" width="375" height="117" transform="translate(-17564 1798.804)" fill="#252525"/>
    </clipPath>
    <filter id="パス_4967" x="-34.576" y="-22.701" width="168.504" height="168.505" filterUnits="userSpaceOnUse">
      <feOffset dy="3" input="SourceAlpha"/>
      <feGaussianBlur stdDeviation="3" result="blur"/>
      <feFlood flood-opacity="0.161"/>
      <feComposite operator="in" in2="blur"/>
      <feComposite in="SourceGraphic"/>
    </filter>
    <filter id="パス_4967-2" x="259.215" y="-10.772" width="108.752" height="108.752" filterUnits="userSpaceOnUse">
      <feOffset dy="3" input="SourceAlpha"/>
      <feGaussianBlur stdDeviation="3" result="blur-2"/>
      <feFlood flood-opacity="0.161"/>
      <feComposite operator="in" in2="blur-2"/>
      <feComposite in="SourceGraphic"/>
    </filter>
    <filter id="パス_4967-3" x="154.002" y="56.36" width="66.996" height="66.996" filterUnits="userSpaceOnUse">
      <feOffset dy="3" input="SourceAlpha"/>
      <feGaussianBlur stdDeviation="3" result="blur-3"/>
      <feFlood flood-opacity="0.161"/>
      <feComposite operator="in" in2="blur-3"/>
      <feComposite in="SourceGraphic"/>
    </filter>
  </defs>
  <g id="マスクグループ_1850" data-name="マスクグループ 1850" transform="translate(17564 -1798.804)" clip-path="url(#clip-path)">
    <g id="グループ_5882" data-name="グループ 5882" transform="translate(-17564 -907)">
      <g id="グループ_5457" data-name="グループ 5457" transform="translate(0 2122.477)">
        <rect id="長方形_2883-2" data-name="長方形 2883" width="375" height="117" transform="translate(0 583)" fill="#252525"/>
      </g>
      <g id="グループ_5644" data-name="グループ 5644" transform="translate(16808.984 2668.467)">
        <g id="グループ_5627" data-name="グループ 5627" transform="translate(-16834.561 20.635)" opacity="0.55">
          <g id="_124594_更新済み_" data-name="124594 [更新済み]" transform="translate(55.089 0) rotate(30)" opacity="0.44" style="isolation: isolate">
            <rect id="長方形_2937" data-name="長方形 2937" width="18.843" height="5.047" transform="translate(15.144 56.146)" fill="#fff"/>
            <rect id="長方形_2938" data-name="長方形 2938" width="18.843" height="5.047" transform="translate(15.144 65.567)" fill="#fff"/>
            <rect id="長方形_2939" data-name="長方形 2939" width="18.843" height="5.047" transform="translate(15.144 74.99)" fill="#fff"/>
            <rect id="長方形_2940" data-name="長方形 2940" width="18.846" height="5.047" transform="translate(76.183 56.146)" fill="#fff"/>
            <rect id="長方形_2941" data-name="長方形 2941" width="18.846" height="5.047" transform="translate(76.183 65.567)" fill="#fff"/>
            <rect id="長方形_2942" data-name="長方形 2942" width="18.846" height="5.047" transform="translate(76.183 74.99)" fill="#fff"/>
            <g transform="matrix(0.87, -0.5, 0.5, 0.87, -17.21, 29.22)" filter="url(#パス_4967)">
              <path id="パス_4967-4" data-name="パス 4967" d="M55.087,0a55.089,55.089,0,1,0,55.089,55.089A55.15,55.15,0,0,0,55.087,0Zm20.8,9.632A50.187,50.187,0,0,1,90.27,19.555H75.886ZM34.949,9.314V19.555H19.9A50.222,50.222,0,0,1,34.949,9.314Zm7.477,94.131a49.787,49.787,0,0,1-16.312-7.631H42.426ZM62.7,104.488a50.452,50.452,0,0,1-5.09.515V98.015H52.563V105a49.729,49.729,0,0,1-5.09-.515V95.814H62.7Zm5.047-1.042V95.814H84.059A49.763,49.763,0,0,1,67.747,103.445ZM90.066,90.81a2.148,2.148,0,0,0-.215-.043H20.322c-.076,0-.141.038-.215.043A49.8,49.8,0,0,1,15.5,24.6H40V7.386a49.637,49.637,0,0,1,30.843.242V24.6h23.84A49.8,49.8,0,0,1,90.066,90.81Z" transform="translate(29.51 -16.7) rotate(30)" fill="#fff"/>
            </g>
            <path id="パス_4969" data-name="パス 4969" d="M25.722,10.829C36.18,15.881,20.865,0,14.893,0S-7.589,16.566,4.064,10.829,15.265,5.777,25.722,10.829Z" transform="translate(59.491 33.454)" fill="#fff"/>
            <path id="パス_4971" data-name="パス 4971" d="M25.722,10.829C36.18,15.881,20.865,0,14.893,0S-7.589,16.566,4.064,10.829,15.265,5.777,25.722,10.829Z" transform="translate(19.712 32.948)" fill="#fff"/>
            <path id="パス_4970" data-name="パス 4970" d="M14.329,11.366a5.979,5.979,0,1,0-5.047.093v6.329L0,27.07l3.568,3.568L11.805,22.4l8.237,8.237L23.61,27.07l-9.282-9.284Z" transform="translate(43.281 54.872)" fill="#fff"/>
          </g>
        </g>
      </g>
      <g id="グループ_5640" data-name="グループ 5640" transform="matrix(0.485, -0.875, 0.875, 0.485, 8395.692, -11969.826)">
        <g id="グループ_5627-2" data-name="グループ 5627" transform="translate(-16834.561 20.635)" opacity="0.55">
          <g id="_124594_更新済み_2" data-name="124594 [更新済み]" transform="translate(33.068 0) rotate(30)" opacity="0.44" style="isolation: isolate">
            <rect id="長方形_2937-2" data-name="長方形 2937" width="11.311" height="3.03" transform="translate(9.09 33.703)" fill="#fff"/>
            <rect id="長方形_2938-2" data-name="長方形 2938" width="11.311" height="3.03" transform="translate(9.09 39.358)" fill="#fff"/>
            <rect id="長方形_2939-2" data-name="長方形 2939" width="11.311" height="3.03" transform="translate(9.09 45.014)" fill="#fff"/>
            <rect id="長方形_2940-2" data-name="長方形 2940" width="11.313" height="3.03" transform="translate(45.731 33.703)" fill="#fff"/>
            <rect id="長方形_2941-2" data-name="長方形 2941" width="11.313" height="3.03" transform="translate(45.731 39.358)" fill="#fff"/>
            <rect id="長方形_2942-2" data-name="長方形 2942" width="11.313" height="3.03" transform="translate(45.731 45.014)" fill="#fff"/>
            <g transform="matrix(0.86, 0.52, -0.52, 0.86, -214.82, -163.25)" filter="url(#パス_4967-2)">
              <path id="パス_4967-5" data-name="パス 4967" d="M33.067,0A33.068,33.068,0,1,0,66.135,33.068,33.1,33.1,0,0,0,33.067,0ZM45.552,5.782a30.126,30.126,0,0,1,8.634,5.956H45.552ZM20.979,5.591v6.147H11.947A30.147,30.147,0,0,1,20.979,5.591Zm4.488,56.5a29.886,29.886,0,0,1-9.792-4.581h9.792Zm12.17.626a30.286,30.286,0,0,1-3.055.309V58.835h-3.03V63.03a29.85,29.85,0,0,1-3.055-.309V57.514h9.14Zm3.03-.626V57.514h9.792A29.871,29.871,0,0,1,40.667,62.1Zm13.4-7.585a1.289,1.289,0,0,0-.129-.026H12.2c-.045,0-.085.023-.129.026A29.9,29.9,0,0,1,9.3,14.768H24.008V4.434a29.8,29.8,0,0,1,18.514.145V14.768h14.31A29.894,29.894,0,0,1,54.064,54.51Z" transform="translate(268.22 29.29) rotate(-31)" fill="#fff"/>
            </g>
            <path id="パス_4969-2" data-name="パス 4969" d="M15.44,6.5C21.717,9.533,12.525,0,8.94,0s-13.5,9.944-6.5,6.5S9.163,3.468,15.44,6.5Z" transform="translate(35.711 20.081)" fill="#fff"/>
            <path id="パス_4971-2" data-name="パス 4971" d="M15.44,6.5C21.717,9.533,12.525,0,8.94,0s-13.5,9.944-6.5,6.5S9.163,3.468,15.44,6.5Z" transform="translate(11.832 19.778)" fill="#fff"/>
            <path id="パス_4970-2" data-name="パス 4970" d="M8.6,6.823a3.589,3.589,0,1,0-3.03.056v3.8L0,16.249l2.142,2.142,4.944-4.944,4.944,4.944,2.142-2.142L8.6,10.676Z" transform="translate(25.981 32.938)" fill="#fff"/>
          </g>
        </g>
      </g>
      <g id="_142820_更新済み_" data-name="142820 [更新済み]" transform="translate(349.752 2600.991) rotate(39)" opacity="0.49">
        <path id="パス_4073" data-name="パス 4073" d="M209.61,223.822l1.364,1.164a6.975,6.975,0,0,1,5.314-2.453V220.74A8.768,8.768,0,0,0,209.61,223.822Z" transform="translate(-85.909 -73.902)" fill="#fdfdfd"/>
        <path id="パス_4074" data-name="パス 4074" d="M142.557,152.669h-.277a12.3,12.3,0,0,0-8.889-8.937v-1.306a2.865,2.865,0,1,0-5.731,0v1.242a12.259,12.259,0,0,0-9.171,9h-.3a2.945,2.945,0,0,0,0,5.889h.261a12.254,12.254,0,0,0,23.795,0h.317a2.945,2.945,0,1,0,0-5.889Zm-13.1-10.243a1.072,1.072,0,1,1,2.145,0v.99a12.092,12.092,0,0,0-1.214-.065c-.314,0-.623.018-.932.041v-.966Zm.932,2.717a10.507,10.507,0,0,1,10.049,7.527h-20.1A10.481,10.481,0,0,1,130.384,145.143Zm.909,20.9v-2.609a2.109,2.109,0,1,0-1.845,0v2.612a10.512,10.512,0,0,1-9.157-7.486h20.094A10.438,10.438,0,0,1,131.293,166.042Zm11.264-9.277H118.183a1.152,1.152,0,0,1,0-2.3h24.373a1.152,1.152,0,1,1,0,2.3Z" fill="#fdfdfd"/>
      </g>
      <g id="_142820_更新済み_2" data-name="142820 [更新済み]" transform="translate(25.889 2658.058) rotate(-26)" opacity="0.32">
        <path id="パス_4073-2" data-name="パス 4073" d="M209.61,223.4l1.176,1a6.014,6.014,0,0,1,4.582-2.115V220.74A7.56,7.56,0,0,0,209.61,223.4Z" transform="translate(-87.074 -74.904)" fill="#fdfdfd"/>
        <path id="パス_4074-2" data-name="パス 4074" d="M138.795,150.863h-.239a10.608,10.608,0,0,0-7.664-7.706v-1.126a2.471,2.471,0,1,0-4.942,0V143.1a10.571,10.571,0,0,0-7.908,7.762h-.263a2.539,2.539,0,0,0,0,5.078H118a10.567,10.567,0,0,0,20.518,0h.274a2.539,2.539,0,1,0,0-5.078Zm-11.3-8.833a.925.925,0,1,1,1.849,0v.853a10.426,10.426,0,0,0-1.047-.056c-.271,0-.537.016-.8.036v-.833Zm.8,2.343a9.06,9.06,0,0,1,8.665,6.49h-17.33A9.038,9.038,0,0,1,128.3,144.374Zm.784,18.021v-2.25a1.818,1.818,0,1,0-1.591,0V162.4a9.065,9.065,0,0,1-7.9-6.455h17.327A9,9,0,0,1,129.082,162.395Zm9.712-8H117.778a.993.993,0,0,1,0-1.986h21.017a.993.993,0,1,1,0,1.986Z" transform="translate(2.862 -1.305)" fill="#fdfdfd"/>
        <path id="パス_4973" data-name="パス 4973" d="M135.353,148.258h-.2a8.652,8.652,0,0,0-6.544-5.93v-.867a2.121,2.121,0,0,0-4.219,0v.824a8.65,8.65,0,0,0-6.752,5.973h-.224a1.964,1.964,0,1,0,0,3.908h.192a9.3,9.3,0,0,0,17.52,0h.234a1.965,1.965,0,1,0,0-3.908Zm-9.648-6.8a.794.794,0,0,1,1.579,0v.657c-.3-.027-.592-.043-.894-.043-.231,0-.459.012-.686.027v-.641Zm.686,1.8a7.672,7.672,0,0,1,7.4,4.994h-14.8A7.653,7.653,0,0,1,126.39,143.264Zm.669,13.867V155.4a1.392,1.392,0,0,0,.873-1.253,1.561,1.561,0,0,0-3.105,0,1.392,1.392,0,0,0,.873,1.253v1.733a7.6,7.6,0,0,1-6.742-4.967h14.795A7.538,7.538,0,0,1,127.06,157.132Zm8.293-6.155H117.407a.768.768,0,1,1,0-1.528h17.945a.768.768,0,1,1,0,1.528Z" transform="matrix(0.407, 0.914, -0.914, 0.407, 115.994, -20.455)" fill="#fdfdfd"/>
      </g>
      <g id="グループ_5679" data-name="グループ 5679" transform="matrix(0.485, -0.875, 0.875, 0.485, 8297.855, -11931.674)">
        <g id="グループ_5627-3" data-name="グループ 5627" transform="translate(-16834.561 20.635)" opacity="0.55">
          <g id="_124594_更新済み_3" data-name="124594 [更新済み]" transform="translate(17.853 0) rotate(30)" opacity="0.44" style="isolation: isolate">
            <rect id="長方形_2937-3" data-name="長方形 2937" width="6.107" height="1.636" transform="translate(4.908 18.196)" fill="#fff"/>
            <rect id="長方形_2938-3" data-name="長方形 2938" width="6.107" height="1.636" transform="translate(4.908 21.249)" fill="#fff"/>
            <rect id="長方形_2939-3" data-name="長方形 2939" width="6.107" height="1.636" transform="translate(4.908 24.303)" fill="#fff"/>
            <rect id="長方形_2940-3" data-name="長方形 2940" width="6.108" height="1.636" transform="translate(24.69 18.196)" fill="#fff"/>
            <rect id="長方形_2941-3" data-name="長方形 2941" width="6.108" height="1.636" transform="translate(24.69 21.249)" fill="#fff"/>
            <rect id="長方形_2942-3" data-name="長方形 2942" width="6.108" height="1.636" transform="translate(24.69 24.303)" fill="#fff"/>
            <g transform="matrix(0.86, 0.52, -0.52, 0.86, -98.13, -153.17)" filter="url(#パス_4967-3)">
              <path id="パス_4967-6" data-name="パス 4967" d="M17.852,0A17.853,17.853,0,1,0,35.706,17.853,17.873,17.873,0,0,0,17.852,0Zm6.741,3.122a16.265,16.265,0,0,1,4.662,3.216H24.593Zm-13.267-.1V6.337H6.45A16.276,16.276,0,0,1,11.326,3.019Zm2.423,30.506a16.135,16.135,0,0,1-5.286-2.473h5.286Zm6.57.338a16.35,16.35,0,0,1-1.65.167V31.765H17.035v2.265a16.115,16.115,0,0,1-1.65-.167V31.051H20.32Zm1.636-.338V31.051h5.286A16.127,16.127,0,0,1,21.956,33.525Zm7.233-4.095a.7.7,0,0,0-.07-.014H6.586c-.025,0-.046.012-.07.014A16.141,16.141,0,0,1,5.022,7.973h7.94V2.394a16.087,16.087,0,0,1,10,.079v5.5h7.726A16.14,16.14,0,0,1,29.188,29.43Z" transform="translate(163 80.75) rotate(-31)" fill="#fff"/>
            </g>
            <path id="パス_4969-3" data-name="パス 4969" d="M8.336,3.51C11.725,5.147,6.762,0,4.827,0s-7.286,5.369-3.51,3.51S4.947,1.872,8.336,3.51Z" transform="translate(19.28 10.842)" fill="#fff"/>
            <path id="パス_4971-3" data-name="パス 4971" d="M8.336,3.51C11.725,5.147,6.762,0,4.827,0s-7.286,5.369-3.51,3.51S4.947,1.872,8.336,3.51Z" transform="translate(6.388 10.678)" fill="#fff"/>
            <path id="パス_4970-3" data-name="パス 4970" d="M4.644,3.684a1.938,1.938,0,1,0-1.636.03V5.765L0,8.773,1.156,9.929,3.826,7.26,6.5,9.929,7.652,8.773,4.644,5.764Z" transform="translate(14.027 17.783)" fill="#fff"/>
          </g>
        </g>
      </g>
    </g>
  </g>
</svg>
