<svg xmlns="http://www.w3.org/2000/svg" xmlns:xlink="http://www.w3.org/1999/xlink" width="158.607" height="168.719" viewBox="0 0 158.607 168.719">
  <defs>
    <clipPath id="clip-path">
      <rect id="長方形_2644" data-name="長方形 2644" width="48.318" height="47.482" fill="none"/>
    </clipPath>
    <clipPath id="clip-path-2">
      <rect id="長方形_2645" data-name="長方形 2645" width="45.734" height="46.728" fill="none" stroke="#707070" stroke-width="1"/>
    </clipPath>
    <clipPath id="clip-path-3">
      <rect id="長方形_2656" data-name="長方形 2656" width="40.816" height="46.839" fill="none"/>
    </clipPath>
  </defs>
  <g id="グループ_5874" data-name="グループ 5874" transform="translate(-16.801 -23.622)">
    <path id="パス_5140" data-name="パス 5140" d="M-39.844,0V-9.639h-8.437V0h-4.468V-21.592h4.468v8.232h8.438v-8.232h4.482V0Zm17.959-7.764H-26.47V0h-4.482V-21.592h9.4a7.66,7.66,0,0,1,5.186,1.67q1.934,1.67,1.934,5.171,0,3.823-1.934,5.405A8.515,8.515,0,0,1-21.885-7.764Zm2.109-4.5a3.123,3.123,0,0,0,.879-2.461,2.922,2.922,0,0,0-.886-2.4,3.846,3.846,0,0,0-2.483-.718h-4.2v6.357h4.2A3.674,3.674,0,0,0-19.775-12.261ZM1.67-14.97A3.559,3.559,0,0,0-1.9-11.4,3.559,3.559,0,0,0,1.67-7.83,3.559,3.559,0,0,0,5.24-11.4,3.559,3.559,0,0,0,1.67-14.97Zm17.285-6.622h4.512v17.71H34.16V0H18.955ZM46.45-7.764H41.865V0H37.383V-21.592h9.4a7.66,7.66,0,0,1,5.186,1.67q1.934,1.67,1.934,5.171,0,3.823-1.934,5.405A8.515,8.515,0,0,1,46.45-7.764Zm2.109-4.5a3.123,3.123,0,0,0,.879-2.461,2.922,2.922,0,0,0-.886-2.4,3.846,3.846,0,0,0-2.483-.718h-4.2v6.357h4.2A3.674,3.674,0,0,0,48.56-12.261Z" transform="translate(94.24 45.214)" fill="#fbd878"/>
    <g id="グループ_3113" data-name="グループ 3113" transform="translate(16.801 56.324)">
      <g id="グループ_1838" data-name="グループ 1838">
        <rect id="anh-nhat-Ee-EjUVs__w-unsplash" width="82.615" height="67.974" transform="translate(75.992 68.044)" fill="#fff"/>
        <rect id="anh-nhat-Ee-EjUVs__w-unsplash-2" data-name="anh-nhat-Ee-EjUVs__w-unsplash" width="79.303" height="67.974" transform="translate(0 0.069)" fill="#fff"/>
        <g id="グループ_1835" data-name="グループ 1835">
          <rect id="anh-nhat-Ee-EjUVs__w-unsplash-3" data-name="anh-nhat-Ee-EjUVs__w-unsplash" width="79.303" height="67.974" transform="translate(0 68.044)" fill="#fbd878"/>
          <rect id="anh-nhat-Ee-EjUVs__w-unsplash-4" data-name="anh-nhat-Ee-EjUVs__w-unsplash" width="79.303" height="67.974" transform="translate(79.303 0)" fill="#fbd878"/>
          <g id="グループ_1825" data-name="グループ 1825" transform="translate(96.963 11.208)">
            <g id="グループ_1824" data-name="グループ 1824" transform="translate(0 0)">
              <g id="グループ_1823" data-name="グループ 1823" clip-path="url(#clip-path)">
                <path id="パス_2639" data-name="パス 2639" d="M35.329,18.861a5.576,5.576,0,0,0-.385-.9l-.254-.435a4.392,4.392,0,0,0,.886-2.561V9.843A4.333,4.333,0,0,0,35,7.745l-.126-.221a2.629,2.629,0,0,0,.282-1.15C35.158,2.237,26.2,0,17.789,0S.43,2.237.43,6.373a2.932,2.932,0,0,0,.262,1.15l-.116.221A4.395,4.395,0,0,0,0,9.843v5.123a4.471,4.471,0,0,0,.878,2.561l-.239.435A4.282,4.282,0,0,0,0,20.157v5.128a4.427,4.427,0,0,0,.84,2.5l-.2.357A4.323,4.323,0,0,0,0,30.34v5.115c0,4.562,7.813,8.127,17.789,8.127a39.383,39.383,0,0,0,5.79-.43c-.113-.161-.2-.335-.309-.491a14.336,14.336,0,1,0,12.06-23.8M17.789,1.9c9.571,0,15.452,2.607,15.452,4.469s-5.88,4.474-15.452,4.474S2.335,8.24,2.335,6.373,8.21,1.9,17.789,1.9M1.9,10.7c2.858,2.416,9.473,3.669,15.887,3.669S30.818,13.117,33.669,10.7v4.265c0,2.939-6.517,6.215-15.879,6.215S1.9,17.905,1.9,14.966Zm0,9.76c2.926,2.67,8.93,4.378,15.887,4.378a37.907,37.907,0,0,0,4.728-.309,14.259,14.259,0,0,0-2.506,5.261,13.131,13.131,0,0,0-.289,1.625c-.649.02-1.261.078-1.932.078-9.358,0-15.887-3.276-15.887-6.21ZM17.789,41.675C8.432,41.675,1.9,38.4,1.9,35.455V30.644c2.926,2.675,8.93,4.381,15.887,4.381.664,0,1.3-.04,1.948-.081a14.382,14.382,0,0,0,1.535,4.891,14.681,14.681,0,0,0,1,1.563,36.839,36.839,0,0,1-4.481.277m16.176,2.951a11.447,11.447,0,0,1-8.406-3.681,12.35,12.35,0,0,1-1.286-1.636,11.439,11.439,0,0,1-1.809-6.182v-.1a12.833,12.833,0,0,1,.186-1.953,11.84,11.84,0,0,1,.448-1.7,11.544,11.544,0,0,1,9.388-7.649,11.378,11.378,0,0,1,1.48-.1c.138,0,.282.015.423.025a11.494,11.494,0,0,1-.423,22.98" transform="translate(0 0)" fill="#fdfdfd"/>
              </g>
            </g>
            <path id="Icon_awesome-wordpress" data-name="Icon awesome-wordpress" d="M3.132,8.285l4.857,13.3a10.182,10.182,0,0,1-4.857-13.3ZM19.3,11.917a5.368,5.368,0,0,0-.837-2.809,4.761,4.761,0,0,1-1-2.388,1.762,1.762,0,0,1,1.708-1.809c.043,0,.086,0,.134.01A10.179,10.179,0,0,0,3.922,6.836c.239.01.464.014.656.014,1.062,0,2.713-.129,2.713-.129a.42.42,0,0,1,.067.837s-.55.062-1.163.1L9.9,18.678,12.133,12,10.549,7.654c-.55-.033-1.067-.1-1.067-.1a.42.42,0,0,1,.062-.837s1.68.129,2.68.129c1.062,0,2.713-.129,2.713-.129A.42.42,0,0,1,15,7.558s-.55.062-1.163.1L17.52,18.6,18.535,15.2A12.565,12.565,0,0,0,19.3,11.917Zm-6.694,1.4L9.553,22.2a10.143,10.143,0,0,0,6.254-.163.763.763,0,0,1-.072-.139l-3.129-8.575Zm8.756-5.775a7.931,7.931,0,0,1,.067,1.048,9.563,9.563,0,0,1-.775,3.646l-3.11,8.991A10.19,10.19,0,0,0,21.363,7.544ZM24.3,12.429A11.867,11.867,0,1,1,12.429.563,11.88,11.88,0,0,1,24.3,12.429Zm-.545,0A11.321,11.321,0,1,0,12.429,23.75,11.335,11.335,0,0,0,23.75,12.429Z" transform="translate(21.605 20.88)" fill="#fdfdfd"/>
          </g>
          <g id="マスクグループ_1826" data-name="マスクグループ 1826" transform="translate(99.308 81.2)" clip-path="url(#clip-path-2)">
            <path id="パス_2640" data-name="パス 2640" d="M15.1,12.477,13.4,14.185,11.69,15.892a16.41,16.41,0,0,0,5.325,7.02.991.991,0,0,0,1.315-.08l1.858-1.858,1.856-1.858a.993.993,0,0,0,.082-1.315A16.422,16.422,0,0,0,15.1,12.477Z" transform="translate(9.599 10.246)" fill="none" stroke="#344154" stroke-linecap="round" stroke-linejoin="round" stroke-width="1"/>
            <path id="パス_2641" data-name="パス 2641" d="M15.528,19.332l8.556,8.556A2.133,2.133,0,1,0,27.1,24.87l-8.556-8.556" transform="translate(12.751 13.397)" fill="none" stroke="#344154" stroke-linecap="round" stroke-linejoin="round" stroke-width="1"/>
            <path id="パス_2642" data-name="パス 2642" d="M14.769,18.971a6,6,0,0,1-3.721-.661,5.5,5.5,0,0,1-2.164-2.883,10.716,10.716,0,0,1-.574-2.943L7.94,8.727,11.7,9.1a10.649,10.649,0,0,1,2.943.574,5.471,5.471,0,0,1,2.883,2.164,6,6,0,0,1,.661,3.721" transform="translate(6.52 7.167)" fill="none" stroke="#344154" stroke-linecap="round" stroke-linejoin="round" stroke-width="1"/>
            <path id="パス_2643" data-name="パス 2643" d="M40.761,45.88H2.084A1.762,1.762,0,0,1,.321,44.119V2.082A1.762,1.762,0,0,1,2.084.321H43.125a1.762,1.762,0,0,1,1.763,1.761V44.119a1.762,1.762,0,0,1-1.763,1.761Z" transform="translate(0.264 0.264)" fill="none" stroke="#344154" stroke-linecap="round" stroke-linejoin="round" stroke-width="1"/>
            <circle id="楕円形_188" data-name="楕円形 188" cx="0.419" cy="0.419" r="0.419" transform="translate(5.736 4.98)" fill="none" stroke="#344154" stroke-linecap="round" stroke-linejoin="round" stroke-width="1"/>
            <circle id="楕円形_189" data-name="楕円形 189" cx="0.419" cy="0.419" r="0.419" transform="translate(10.516 4.98)" fill="none" stroke="#344154" stroke-linecap="round" stroke-linejoin="round" stroke-width="1"/>
            <circle id="楕円形_190" data-name="楕円形 190" cx="0.419" cy="0.419" r="0.419" transform="translate(15.296 4.98)" fill="none" stroke="#344154" stroke-linecap="round" stroke-linejoin="round" stroke-width="1"/>
            <line id="線_35" data-name="線 35" x2="37.643" transform="translate(4.046 10.123)" fill="none" stroke="#344154" stroke-linecap="round" stroke-linejoin="round" stroke-width="1"/>
            <path id="パス_2644" data-name="パス 2644" d="M8.645,8.727H3.61V32.6H26.589" transform="translate(2.964 7.167)" fill="none" stroke="#344154" stroke-linecap="round" stroke-linejoin="round" stroke-width="1"/>
            <path id="パス_2645" data-name="パス 2645" d="M10.323,10.224l-.982-.1.1.982a8.932,8.932,0,0,0,.421,2.318,3.3,3.3,0,0,0,1.149,1.732,3.718,3.718,0,0,0,1.009.357,8.715,8.715,0,0,1-.162-.865,4.666,4.666,0,0,1,.577-3.1,3.932,3.932,0,0,1,.614-.728c-.124-.058-.259-.115-.4-.175a8.932,8.932,0,0,0-2.318-.421" transform="translate(7.67 8.317)" fill="#fbd878"/>
          </g>
          <g id="グループ_1834" data-name="グループ 1834" transform="translate(17.302 11.207)">
            <g id="グループ_1833" data-name="グループ 1833" transform="translate(0 0)">
              <circle id="楕円形_191" data-name="楕円形 191" cx="0.419" cy="0.419" r="0.419" transform="translate(5.152 4.394)" fill="none" stroke="#344154" stroke-linecap="round" stroke-linejoin="round" stroke-width="1"/>
              <g id="グループ_1832" data-name="グループ 1832" transform="translate(9.932 4.394)">
                <circle id="楕円形_192" data-name="楕円形 192" cx="0.419" cy="0.419" r="0.419" fill="none" stroke="#344154" stroke-linecap="round" stroke-linejoin="round" stroke-width="1"/>
                <circle id="楕円形_193" data-name="楕円形 193" cx="0.419" cy="0.419" r="0.419" transform="translate(4.78)" fill="none" stroke="#344154" stroke-linecap="round" stroke-linejoin="round" stroke-width="1"/>
              </g>
              <g id="グループ_1831" data-name="グループ 1831">
                <path id="パス_2647" data-name="パス 2647" d="M27.2,45.88h15.92a1.763,1.763,0,0,0,1.763-1.761V2.084A1.763,1.763,0,0,0,43.125.321H2.082A1.762,1.762,0,0,0,.321,2.084V44.119A1.761,1.761,0,0,0,2.082,45.88H27.2" transform="translate(-0.321 -0.321)" fill="none" stroke="#344154" stroke-linecap="round" stroke-linejoin="round" stroke-width="1"/>
                <line id="線_42" data-name="線 42" x2="37.643" transform="translate(3.461 9.537)" fill="none" stroke="#344154" stroke-linecap="round" stroke-linejoin="round" stroke-width="1"/>
              </g>
            </g>
            <g id="グループ_1830" data-name="グループ 1830" transform="translate(8.257 17.003)">
              <g id="グループ_1829" data-name="グループ 1829">
                <path id="パス_2646" data-name="パス 2646" d="M18.916,16.137l-8.108-5.086V21.223Z" transform="translate(0.033 -5.618)" fill="none" stroke="#344154" stroke-linecap="round" stroke-linejoin="round" stroke-width="1"/>
                <rect id="長方形_2646" data-name="長方形 2646" width="28.051" height="21.038" transform="translate(0 0.001)" fill="none" stroke="#344154" stroke-linecap="round" stroke-linejoin="round" stroke-width="1"/>
                <line id="線_36" data-name="線 36" y2="21.038" transform="translate(5.468)" fill="none" stroke="#344154" stroke-linecap="round" stroke-linejoin="round" stroke-width="1"/>
                <line id="線_37" data-name="線 37" x1="5.467" transform="translate(0.001 7.138)" fill="none" stroke="#344154" stroke-linecap="round" stroke-linejoin="round" stroke-width="1"/>
                <line id="線_38" data-name="線 38" x1="5.467" transform="translate(0.001 14.183)" fill="none" stroke="#344154" stroke-linecap="round" stroke-linejoin="round" stroke-width="1"/>
                <line id="線_39" data-name="線 39" y2="21.038" transform="translate(22.584)" fill="none" stroke="#344154" stroke-linecap="round" stroke-linejoin="round" stroke-width="1"/>
                <line id="線_40" data-name="線 40" x2="5.467" transform="translate(22.584 7.138)" fill="none" stroke="#344154" stroke-linecap="round" stroke-linejoin="round" stroke-width="1"/>
                <line id="線_41" data-name="線 41" x2="5.467" transform="translate(22.584 14.183)" fill="none" stroke="#344154" stroke-linecap="round" stroke-linejoin="round" stroke-width="1"/>
              </g>
              <path id="パス_2649" data-name="パス 2649" d="M11.445,20.673h8.3V15.552Z" transform="translate(0.556 -2.3)" fill="#fbd878"/>
            </g>
          </g>
        </g>
      </g>
      <g id="グループ_1850" data-name="グループ 1850" transform="translate(18.074 79.605)">
        <path id="パス_2663" data-name="パス 2663" d="M2.12,2.12H33.13V39.948H2.12ZM0,42.056H35.25V0H0Z" fill="#fdfdfd"/>
        <rect id="長方形_2654" data-name="長方形 2654" width="24.089" height="2.227" transform="translate(5.823 6.83)" fill="#fdfdfd"/>
        <rect id="長方形_2655" data-name="長方形 2655" width="24.089" height="2.211" transform="translate(5.823 13.84)" fill="#fdfdfd"/>
        <path id="パス_2664" data-name="パス 2664" d="M32.582,1.246V3.362h2V41.19H3.573V39.717H1.454v3.6H36.707V1.246Z" transform="translate(4.108 3.521)" fill="#fdfdfd"/>
        <g id="グループ_1849" data-name="グループ 1849" transform="translate(0 0.001)">
          <g id="グループ_1848" data-name="グループ 1848" clip-path="url(#clip-path-3)">
            <path id="パス_2665" data-name="パス 2665" d="M3.709,15.64a2.613,2.613,0,0,0,1.159-.291l3.019,2.468a1.855,1.855,0,0,0-.077.344,2.646,2.646,0,0,0,5.291,0,2.426,2.426,0,0,0-.3-1.155c1.458-2.177,3.31-4.966,4.431-6.634a2.8,2.8,0,0,0,.517.1,2.646,2.646,0,0,0,1.661-.62c.983.585,2.277,1.339,3.39,1.986,0,.042-.015.057-.015.1a2.688,2.688,0,1,0,.957-2l-3.375-1.97c0-.042.011-.08.011-.126a2.634,2.634,0,1,0-5.268,0,2.484,2.484,0,0,0,.4,1.312c-1.4,2.089-3.206,4.809-4.335,6.52a2.25,2.25,0,0,0-.708-.149,2.553,2.553,0,0,0-1.45.494c-.846-.689-1.879-1.534-2.812-2.3a2.43,2.43,0,0,0,.149-.715A2.644,2.644,0,1,0,3.709,15.64" transform="translate(3.01 14.669)" fill="#fdfdfd"/>
          </g>
        </g>
      </g>
    </g>
  </g>
</svg>
