<svg xmlns="http://www.w3.org/2000/svg" xmlns:xlink="http://www.w3.org/1999/xlink" width="158.607" height="167.956" viewBox="0 0 158.607 167.956">
  <defs>
    <clipPath id="clip-path">
      <rect id="長方形_2653" data-name="長方形 2653" width="44.017" height="44.973" fill="none" stroke="#707070" stroke-width="1"/>
    </clipPath>
    <clipPath id="clip-path-2">
      <rect id="長方形_2653-2" data-name="長方形 2653" width="44.79" height="45.764" fill="none" stroke="#707070" stroke-width="1"/>
    </clipPath>
    <clipPath id="clip-path-3">
      <rect id="長方形_2804" data-name="長方形 2804" width="20.459" height="29.057" fill="none" stroke="#707070" stroke-width="1"/>
    </clipPath>
    <clipPath id="clip-path-4">
      <rect id="長方形_2807" data-name="長方形 2807" width="47.944" height="45.123" fill="none"/>
    </clipPath>
    <clipPath id="clip-path-5">
      <rect id="長方形_2806" data-name="長方形 2806" width="19.096" height="20.071" fill="#fdfdfd" stroke="#fdfdfd" stroke-width="0.5"/>
    </clipPath>
  </defs>
  <g id="グループ_5875" data-name="グループ 5875" transform="translate(-786.432 -3441.162)">
    <path id="パス_5141" data-name="パス 5141" d="M-3.523-9.434H-14.011v5.552H-2.058V0H-18.42V-21.592H-2.585v3.823H-14.011v4.585H-3.523ZM16.692-1.611A8.8,8.8,0,0,1,10.51.6,9.313,9.313,0,0,1,3.186-2.388Q.52-5.391.52-10.62q0-5.654,3.032-8.716A9.035,9.035,0,0,1,10.261-22q5.449,0,7.969,3.574A7.738,7.738,0,0,1,19.724-14.4H15.212a6.094,6.094,0,0,0-1.128-2.344,4.588,4.588,0,0,0-3.647-1.406,4.522,4.522,0,0,0-3.882,1.985,9.542,9.542,0,0,0-1.421,5.618A8.375,8.375,0,0,0,6.636-5.1,4.745,4.745,0,0,0,10.452-3.3,4.364,4.364,0,0,0,14.07-4.849a6.745,6.745,0,0,0,1.143-2.5H19.68A9.71,9.71,0,0,1,16.692-1.611Z" transform="translate(863.511 3463.164)" fill="#fdf369"/>
    <g id="グループ_5608" data-name="グループ 5608" transform="translate(786.432 3473.101)">
      <g id="グループ_3226" data-name="グループ 3226" transform="translate(0)">
        <g id="グループ_3111" data-name="グループ 3111">
          <g id="グループ_3112" data-name="グループ 3112">
            <g id="グループ_1838" data-name="グループ 1838">
              <rect id="anh-nhat-Ee-EjUVs__w-unsplash" width="82.615" height="67.974" transform="translate(75.992 68.044)" fill="#fff"/>
              <rect id="anh-nhat-Ee-EjUVs__w-unsplash-2" data-name="anh-nhat-Ee-EjUVs__w-unsplash" width="79.303" height="67.974" transform="translate(0 0.069)" fill="#fff"/>
              <g id="グループ_1835" data-name="グループ 1835">
                <rect id="anh-nhat-Ee-EjUVs__w-unsplash-3" data-name="anh-nhat-Ee-EjUVs__w-unsplash" width="79.303" height="67.974" transform="translate(0 68.044)" fill="#fdf369"/>
                <rect id="anh-nhat-Ee-EjUVs__w-unsplash-4" data-name="anh-nhat-Ee-EjUVs__w-unsplash" width="79.303" height="67.974" transform="translate(79.303 0)" fill="#fdf369"/>
              </g>
            </g>
            <g id="グループ_1847" data-name="グループ 1847" transform="translate(16.272 11.315)">
              <g id="グループ_1846" data-name="グループ 1846">
                <g id="グループ_1845" data-name="グループ 1845" transform="translate(0 0)" clip-path="url(#clip-path)">
                  <path id="パス_2657" data-name="パス 2657" d="M39.242,44.169H2.018a1.7,1.7,0,0,1-1.7-1.695V2.018a1.7,1.7,0,0,1,1.7-1.7h39.5a1.7,1.7,0,0,1,1.7,1.7V42.474a1.7,1.7,0,0,1-1.7,1.695Z" transform="translate(0.242 0.242)" fill="none" stroke="#344154" stroke-linecap="round" stroke-linejoin="round" stroke-width="1"/>
                  <ellipse id="楕円形_239" data-name="楕円形 239" cx="0.403" cy="0.403" rx="0.403" ry="0.403" transform="translate(5.521 4.793)" fill="none" stroke="#344154" stroke-linecap="round" stroke-linejoin="round" stroke-width="1"/>
                  <ellipse id="楕円形_240" data-name="楕円形 240" cx="0.403" cy="0.403" rx="0.403" ry="0.403" transform="translate(10.121 4.793)" fill="none" stroke="#344154" stroke-linecap="round" stroke-linejoin="round" stroke-width="1"/>
                  <ellipse id="楕円形_241" data-name="楕円形 241" cx="0.403" cy="0.403" rx="0.403" ry="0.403" transform="translate(14.722 4.793)" fill="none" stroke="#344154" stroke-linecap="round" stroke-linejoin="round" stroke-width="1"/>
                  <line id="線_43" data-name="線 43" x2="36.229" transform="translate(3.894 9.743)" fill="none" stroke="#344154" stroke-linecap="round" stroke-linejoin="round" stroke-width="1"/>
                </g>
              </g>
            </g>
          </g>
          <g id="グループ_1847-2" data-name="グループ 1847" transform="translate(97.96 80.2)">
            <g id="グループ_1846-2" data-name="グループ 1846" transform="translate(0)">
              <g id="グループ_1845-2" data-name="グループ 1845" transform="translate(0 0)" clip-path="url(#clip-path-2)">
                <path id="パス_2657-2" data-name="パス 2657" d="M39.926,44.94H2.047A1.725,1.725,0,0,1,.321,43.215V2.047A1.726,1.726,0,0,1,2.047.321H42.241a1.726,1.726,0,0,1,1.726,1.726V43.215a1.725,1.725,0,0,1-1.726,1.725Z" transform="translate(0.252 0.252)" fill="none" stroke="#344154" stroke-linecap="round" stroke-linejoin="round" stroke-width="1"/>
                <ellipse id="楕円形_239-2" data-name="楕円形 239" cx="0.41" cy="0.41" rx="0.41" ry="0.41" transform="translate(5.618 4.877)" fill="none" stroke="#344154" stroke-linecap="round" stroke-linejoin="round" stroke-width="1"/>
                <ellipse id="楕円形_240-2" data-name="楕円形 240" cx="0.41" cy="0.41" rx="0.41" ry="0.41" transform="translate(10.299 4.877)" fill="none" stroke="#344154" stroke-linecap="round" stroke-linejoin="round" stroke-width="1"/>
                <ellipse id="楕円形_241-2" data-name="楕円形 241" cx="0.41" cy="0.41" rx="0.41" ry="0.41" transform="translate(14.981 4.877)" fill="none" stroke="#344154" stroke-linecap="round" stroke-linejoin="round" stroke-width="1"/>
                <line id="線_43-2" data-name="線 43" x2="36.866" transform="translate(3.962 9.914)" fill="none" stroke="#344154" stroke-linecap="round" stroke-linejoin="round" stroke-width="1"/>
                <path id="パス_2658" data-name="パス 2658" d="M7.655,26.161h10.7l1.5,2.615,1.5-2.615h4.5a1.613,1.613,0,0,0,1.74-1.444V9.653a1.613,1.613,0,0,0-1.74-1.444H7.749a1.613,1.613,0,0,0-1.74,1.444V24.794A1.525,1.525,0,0,0,7.655,26.161Z" transform="translate(5.111 11.858)" fill="none" stroke="#344154" stroke-linecap="round" stroke-miterlimit="10" stroke-width="1"/>
                <path id="パス_2660" data-name="パス 2660" d="M7.265,22.479h5.463L7.265,17.016Z" transform="translate(5.692 13.334)" fill="#fdf369"/>
              </g>
            </g>
            <path id="パス_2662" data-name="パス 2662" d="M1.222,0,0,4.89" transform="translate(32.394 13.563)" fill="none" stroke="#344154" stroke-width="1"/>
            <line id="線_45" data-name="線 45" x1="3.667" y2="3.667" transform="translate(33.616 16.008)" fill="none" stroke="#344154" stroke-width="1"/>
            <path id="パス_2661" data-name="パス 2661" d="M4.89,0H0" transform="translate(34.839 20.898)" fill="none" stroke="#344154" stroke-width="1"/>
          </g>
        </g>
        <g id="グループ_3215" data-name="グループ 3215" transform="translate(27.648 23.899)">
          <g id="グループ_3214" data-name="グループ 3214" transform="translate(0 0)" clip-path="url(#clip-path-3)">
            <path id="パス_3130" data-name="パス 3130" d="M12.417,13.02a29.2,29.2,0,0,1,3.011,1.853,2.288,2.288,0,0,1,.507.576,2.561,2.561,0,0,1,.373,1.36V18.9H4.155" transform="translate(-0.002 -0.005)" fill="none" stroke="#344154" stroke-linecap="round" stroke-miterlimit="10" stroke-width="1"/>
            <path id="パス_3131" data-name="パス 3131" d="M8.046,13.02a29.2,29.2,0,0,0-3.011,1.853,2.288,2.288,0,0,0-.507.576,2.561,2.561,0,0,0-.373,1.36V18.9" transform="translate(-0.002 -0.005)" fill="none" stroke="#344154" stroke-linecap="round" stroke-miterlimit="10" stroke-width="1"/>
            <ellipse id="楕円形_299" data-name="楕円形 299" cx="3.059" cy="3.8" rx="3.059" ry="3.8" transform="translate(7.171 6.558)" fill="none" stroke="#344154" stroke-linecap="round" stroke-miterlimit="10" stroke-width="1"/>
            <path id="パス_3132" data-name="パス 3132" d="M10.233,7.954a1.227,1.227,0,0,0-.7.232,2.661,2.661,0,0,1,.97,2.174,2.66,2.66,0,0,1-.97,2.174,1.227,1.227,0,0,0,.7.232c.9,0,1.666-1.1,1.666-2.406s-.764-2.406-1.666-2.406" transform="translate(-0.004 -0.003)" fill="#ffea79"/>
            <path id="パス_3133" data-name="パス 3133" d="M6.839.767V4.14a.576.576,0,0,0,.577.577h.232a.576.576,0,0,0,.572-.5l.01-.071a2.02,2.02,0,0,1,4.005,0l.009.071a.577.577,0,0,0,1.15-.074V.767a.446.446,0,0,0-.446-.446H7.285A.446.446,0,0,0,6.839.767Z" transform="translate(-0.003 0)" fill="none" stroke="#344154" stroke-linecap="round" stroke-linejoin="round" stroke-width="1"/>
            <path id="パス_3134" data-name="パス 3134" d="M5.611,1.671H.852a.521.521,0,0,0-.531.511V27.171a.521.521,0,0,0,.531.51H19.607a.521.521,0,0,0,.532-.51V2.182a.522.522,0,0,0-.532-.511h-4.99" transform="translate(0 -0.001)" fill="none" stroke="#344154" stroke-linecap="round" stroke-linejoin="round" stroke-width="1"/>
            <line id="線_141" data-name="線 141" x2="6.324" transform="translate(7.068 21.889)" fill="none" stroke="#344154" stroke-linecap="round" stroke-linejoin="round" stroke-width="1"/>
            <line id="線_142" data-name="線 142" x2="6.324" transform="translate(7.068 24.788)" fill="none" stroke="#344154" stroke-linecap="round" stroke-linejoin="round" stroke-width="1"/>
          </g>
        </g>
        <g id="グループ_3221" data-name="グループ 3221" transform="translate(90.222 12.234)">
          <g id="グループ_3220" data-name="グループ 3220" transform="translate(0 0)" clip-path="url(#clip-path-4)">
            <path id="パス_3141" data-name="パス 3141" d="M47.651,8.578A1.543,1.543,0,0,0,46.4,7.95H16.665a1.537,1.537,0,1,0,0,3.074H44.3l-1.108,3.459H20.039a1.539,1.539,0,1,0,0,3.077H42.2l-1.269,3.977h-19.1a1.537,1.537,0,0,0,0,3.074H39.943L38.87,27.948H18.521L10.17,3.85a1.563,1.563,0,0,0-.89-.922L2.1.11a1.536,1.536,0,1,0-1.12,2.86l6.515,2.56,7.982,23.006a1.285,1.285,0,0,0-.789.773l-2.3,6.407a1.277,1.277,0,0,0,.155,1.171,1.291,1.291,0,0,0,1.054.546h1.184a4.556,4.556,0,0,0-1.184,3.074,4.615,4.615,0,1,0,8.039-3.074H31.7a4.615,4.615,0,1,0,6.862,0h1.436a1.281,1.281,0,1,0,0-2.563H15.415L16.839,30.9a1.645,1.645,0,0,0,.593.12H39.994a1.524,1.524,0,0,0,1.461-1.064l6.417-20a1.54,1.54,0,0,0-.221-1.376M18.2,42.559a2.05,2.05,0,1,1,2.052-2.052A2.049,2.049,0,0,1,18.2,42.559m16.921,0a2.05,2.05,0,1,1,2.052-2.052,2.048,2.048,0,0,1-2.052,2.052" transform="translate(0 0)" fill="#fdfdfd"/>
          </g>
        </g>
        <g id="楕円形_300" data-name="楕円形 300" transform="translate(121.348 31.251)" fill="#fdf369" stroke="#fdfdfd" stroke-width="1.5">
          <circle cx="14.415" cy="14.415" r="14.415" stroke="none"/>
          <circle cx="14.415" cy="14.415" r="13.665" fill="none"/>
        </g>
        <g id="グループ_3219" data-name="グループ 3219" transform="translate(126.581 35.996)">
          <g id="グループ_3218" data-name="グループ 3218" transform="translate(0 0)" clip-path="url(#clip-path-5)">
            <path id="パス_3140" data-name="パス 3140" d="M18.8,4.88,15.443,3.5V3.5c0-.8-.316-2.122-2.412-2.122a5.914,5.914,0,0,0-2.247.513A3.853,3.853,0,0,1,11.9.933a.5.5,0,1,0-.468-.874A5.125,5.125,0,0,0,9.669,1.749,2.848,2.848,0,0,0,8.535.471a.494.494,0,1,0-.452.879,1.865,1.865,0,0,1,.643.736,6.033,6.033,0,0,0-2.662-.712c-2.1,0-2.412,1.325-2.412,2.122V3.5L.305,4.88A.113.113,0,0,0,.268,4.9a.42.42,0,0,0-.2.162A.591.591,0,0,0,0,5.34v9.833a.49.49,0,0,0,.274.444l9.042,4.4a.49.49,0,0,0,.228.056.464.464,0,0,0,.223-.048l9.055-4.4a.5.5,0,0,0,.274-.452V5.34a.5.5,0,0,0-.3-.46M13.125,2.344c1.24,0,1.416.539,1.416,1.124s-.175,1.126-1.416,1.126c-.725,0-3.015-.377-3.015-.9s1.639-1.349,3.015-1.349m-7.113,0c1.371,0,3.01.823,3.01,1.349s-2.282.9-3.01.9c-1.248,0-1.421-.542-1.421-1.126s.173-1.124,1.421-1.124M4.154,16.4.991,14.865V6.078l3.164,1.31ZM1.793,5.337l2.061-.85a2.151,2.151,0,0,0,2.21,1.124,8.4,8.4,0,0,0,1.488-.138L4.933,6.628Zm7.26,13.449-3.907-1.9V7.8L9.053,9.409Zm.5-10.258L6.2,7.149,9.555,5.664l3.352,1.485Zm4.4,8.365-3.907,1.894V9.409L13.951,7.8ZM11.568,5.475a8.4,8.4,0,0,0,1.464.135,2.153,2.153,0,0,0,2.21-1.124l2.064.853-.165.066L14.168,6.628Zm6.542,9.39-3.169,1.541V7.388l2.6-1.076.571-.234Z" transform="translate(0 -0.002)" fill="#fdfdfd" stroke="#fdfdfd" stroke-width="0.5"/>
          </g>
        </g>
      </g>
      <g id="グループ_3223" data-name="グループ 3223" transform="translate(12.52 81.228)">
        <g id="グループ_3222" data-name="グループ 3222" transform="translate(2.959 1.595)">
          <path id="Icon_metro-credit-card" data-name="Icon metro-credit-card" d="M46.222,5.784H7.086A4.529,4.529,0,0,0,2.571,10.3V37.394A4.529,4.529,0,0,0,7.086,41.91H46.222a4.529,4.529,0,0,0,4.516-4.516V10.3a4.529,4.529,0,0,0-4.516-4.516ZM7.086,8.795H46.222A1.525,1.525,0,0,1,47.727,10.3v4.516H5.581V10.3A1.525,1.525,0,0,1,7.086,8.795ZM46.222,38.9H7.086a1.525,1.525,0,0,1-1.505-1.505V23.847H47.727V37.394A1.525,1.525,0,0,1,46.222,38.9ZM8.592,29.868H11.6v6.021H8.592Zm6.021,0h3.01v6.021h-3.01Zm6.021,0h3.01v6.021h-3.01Z" transform="translate(1.316 -1.675)" fill="#fdfdfd"/>
          <path id="パス_3142" data-name="パス 3142" d="M0,0,47,.947V8.153l2.058,3.976V35.8l-1.39,1.436-39.281.1L7.66,36.322H3.683Z" fill="#ffea79"/>
        </g>
        <path id="Icon_metro-credit-card-2" data-name="Icon metro-credit-card" d="M46.222,5.784H7.086A4.529,4.529,0,0,0,2.571,10.3V37.394A4.529,4.529,0,0,0,7.086,41.91H46.222a4.529,4.529,0,0,0,4.516-4.516V10.3a4.529,4.529,0,0,0-4.516-4.516ZM7.086,8.795H46.222A1.525,1.525,0,0,1,47.727,10.3v6.918H5.581V10.3A1.525,1.525,0,0,1,7.086,8.795ZM46.222,38.9H7.086a1.525,1.525,0,0,1-1.505-1.505V23.847H47.727V37.394A1.525,1.525,0,0,1,46.222,38.9ZM8.592,29.868H11.6v6.021H8.592Zm6.021,0h3.01v6.021h-3.01Zm6.021,0h3.01v6.021h-3.01Z" transform="translate(-2.571 -5.784)" fill="#fdfdfd"/>
      </g>
    </g>
  </g>
</svg>
