<svg xmlns="http://www.w3.org/2000/svg" xmlns:xlink="http://www.w3.org/1999/xlink" width="367.893" height="133.609" viewBox="0 0 367.893 133.609">
  <defs>
    <clipPath id="clip-path">
      <rect width="44.971" height="36.847" fill="none"/>
    </clipPath>
    <clipPath id="clip-path-2">
      <rect width="160.857" height="36.847" fill="none"/>
    </clipPath>
  </defs>
  <g id="グループ_5866" data-name="グループ 5866" transform="translate(-59.536 -299.227)">
    <g id="グループ_5615" data-name="グループ 5615" transform="translate(60.537 286.38)">
      <line id="線_509" data-name="線 509" y2="133.609" transform="translate(82.432 12.847)" fill="none" stroke="#707070" stroke-width="2"/>
      <g id="グループ_5614" data-name="グループ 5614" transform="translate(0 6.105)">
        <text id="モバイル_対応済み" data-name="モバイル
対応済み" transform="translate(28.999 104.245)" fill="#252525" font-size="14" font-family="HiraginoSans-W6, Hiragino Sans" letter-spacing="0.05em"><tspan x="-28.84" y="0">モバイル</tspan><tspan y="0" font-family="Helvetica-Bold, Helvetica" font-weight="700"></tspan><tspan x="-29.05" y="24">対応済み</tspan></text>
        <text id="モバイル_未対応" data-name="モバイル
未対応" transform="translate(29 36.847)" fill="#252525" font-size="14" font-family="HiraginoSans-W6, Hiragino Sans" letter-spacing="0.05em"><tspan x="-28.84" y="0">モバイル</tspan><tspan y="0" font-family="Helvetica-Bold, Helvetica" font-weight="700"></tspan><tspan x="-21.7" y="24">未対応</tspan></text>
      </g>
    </g>
    <g id="グループ_5864" data-name="グループ 5864">
      <text id="_14_" data-name="14％" transform="translate(252.928 338.031)" fill="#252525" font-size="16" font-family="Helvetica-Bold, Helvetica" font-weight="700" letter-spacing="0.05em"><tspan x="-17.698" y="0">14</tspan><tspan y="0" font-family="HiraginoSans-W6, Hiragino Sans" font-weight="400">％</tspan></text>
      <g id="_124594_更新済み_" data-name="124594 [更新済み]" transform="translate(153.994 314.833)" clip-path="url(#clip-path)">
        <g id="_124594_更新済み_2" data-name="124594 [更新済み]" transform="translate(-59.71 -62.59)">
          <rect id="長方形_2969" data-name="長方形 2969" width="4.905" height="1.314" transform="translate(63.652 77.206)"/>
          <rect id="長方形_2970" data-name="長方形 2970" width="4.905" height="1.314" transform="translate(63.652 79.658)"/>
          <rect id="長方形_2971" data-name="長方形 2971" width="4.905" height="1.314" transform="translate(63.652 82.111)"/>
          <rect id="長方形_2972" data-name="長方形 2972" width="4.906" height="1.314" transform="translate(79.542 77.206)"/>
          <rect id="長方形_2973" data-name="長方形 2973" width="4.906" height="1.314" transform="translate(79.542 79.658)"/>
          <rect id="長方形_2974" data-name="長方形 2974" width="4.906" height="1.314" transform="translate(79.542 82.111)"/>
          <path id="パス_5059" data-name="パス 5059" d="M74.05,62.59A14.341,14.341,0,1,0,88.391,76.931,14.356,14.356,0,0,0,74.05,62.59ZM79.464,65.1a13.064,13.064,0,0,1,3.744,2.583H79.464Zm-10.657-.083v2.666H64.891A13.074,13.074,0,0,1,68.808,65.015Zm1.946,24.5a12.96,12.96,0,0,1-4.246-1.987h4.246Zm5.278.271a13.132,13.132,0,0,1-1.325.134V88.1H73.393v1.819a12.943,12.943,0,0,1-1.325-.134V87.532h3.964Zm1.314-.271V87.532h4.246A12.954,12.954,0,0,1,77.346,89.519Zm5.81-3.289a.56.56,0,0,0-.056-.011H65c-.02,0-.037.01-.056.011a12.965,12.965,0,0,1-1.2-17.235h6.377V64.513a12.921,12.921,0,0,1,8.029.063v4.418h6.206a12.964,12.964,0,0,1-1.2,17.235Z" transform="translate(0 0)"/>
          <path id="パス_5060" data-name="パス 5060" d="M164.638,179.519a3.159,3.159,0,1,0-3.159,3.159A3.163,3.163,0,0,0,164.638,179.519Zm-3.816,1.718a1.837,1.837,0,0,1,0-3.437Zm1.314,0V177.8a1.837,1.837,0,0,1,0,3.437Z" transform="translate(-92.132 -106.296)"/>
          <path id="パス_5061" data-name="パス 5061" d="M308.388,179.519a3.159,3.159,0,1,0-3.159,3.159A3.163,3.163,0,0,0,308.388,179.519Zm-3.816,1.718a1.837,1.837,0,0,1,0-3.437Zm1.314,0V177.8a1.837,1.837,0,0,1,0,3.437Z" transform="translate(-226.439 -106.296)"/>
          <path id="パス_5062" data-name="パス 5062" d="M234.95,282.989a1.556,1.556,0,1,0-1.314.024v1.648l-2.416,2.416.929.929,2.144-2.144,2.144,2.144.929-.929-2.416-2.417Z" transform="translate(-160.243 -203.156)"/>
        </g>
        <g id="_124594_更新済み_3" data-name="124594 [更新済み]" transform="translate(-25.71 -62.59)">
          <rect id="長方形_2969-2" data-name="長方形 2969" width="4.905" height="1.314" transform="translate(63.652 77.206)"/>
          <rect id="長方形_2970-2" data-name="長方形 2970" width="4.905" height="1.314" transform="translate(63.652 79.658)"/>
          <rect id="長方形_2971-2" data-name="長方形 2971" width="4.905" height="1.314" transform="translate(63.652 82.111)"/>
          <rect id="長方形_2972-2" data-name="長方形 2972" width="4.906" height="1.314" transform="translate(79.542 77.206)"/>
          <rect id="長方形_2973-2" data-name="長方形 2973" width="4.906" height="1.314" transform="translate(79.542 79.658)"/>
          <rect id="長方形_2974-2" data-name="長方形 2974" width="4.906" height="1.314" transform="translate(79.542 82.111)"/>
          <path id="パス_5059-2" data-name="パス 5059" d="M74.05,62.59A14.341,14.341,0,1,0,88.391,76.931,14.356,14.356,0,0,0,74.05,62.59ZM79.464,65.1a13.064,13.064,0,0,1,3.744,2.583H79.464Zm-10.657-.083v2.666H64.891A13.074,13.074,0,0,1,68.808,65.015Zm1.946,24.5a12.96,12.96,0,0,1-4.246-1.987h4.246Zm5.278.271a13.132,13.132,0,0,1-1.325.134V88.1H73.393v1.819a12.943,12.943,0,0,1-1.325-.134V87.532h3.964Zm1.314-.271V87.532h4.246A12.954,12.954,0,0,1,77.346,89.519Zm5.81-3.289a.56.56,0,0,0-.056-.011H65c-.02,0-.037.01-.056.011a12.965,12.965,0,0,1-1.2-17.235h6.377V64.513a12.921,12.921,0,0,1,8.029.063v4.418h6.206a12.964,12.964,0,0,1-1.2,17.235Z" transform="translate(0 0)"/>
          <path id="パス_5060-2" data-name="パス 5060" d="M164.638,179.519a3.159,3.159,0,1,0-3.159,3.159A3.163,3.163,0,0,0,164.638,179.519Zm-3.816,1.718a1.837,1.837,0,0,1,0-3.437Zm1.314,0V177.8a1.837,1.837,0,0,1,0,3.437Z" transform="translate(-92.132 -106.296)"/>
          <path id="パス_5061-2" data-name="パス 5061" d="M308.388,179.519a3.159,3.159,0,1,0-3.159,3.159A3.163,3.163,0,0,0,308.388,179.519Zm-3.816,1.718a1.837,1.837,0,0,1,0-3.437Zm1.314,0V177.8a1.837,1.837,0,0,1,0,3.437Z" transform="translate(-226.439 -106.296)"/>
          <path id="パス_5062-2" data-name="パス 5062" d="M234.95,282.989a1.556,1.556,0,1,0-1.314.024v1.648l-2.416,2.416.929.929,2.144-2.144,2.144,2.144.929-.929-2.416-2.417Z" transform="translate(-160.243 -203.156)"/>
        </g>
      </g>
    </g>
    <g id="グループ_5865" data-name="グループ 5865">
      <text id="_59_" data-name="59％" transform="translate(409.429 406.604)" fill="#252525" font-size="16" font-family="Helvetica-Bold, Helvetica" font-weight="700" letter-spacing="0.05em"><tspan x="-17.698" y="0">59</tspan><tspan y="0" font-family="HiraginoSans-W6, Hiragino Sans" font-weight="400">％</tspan></text>
      <g id="_124594_更新済み_4" data-name="124594 [更新済み]" transform="translate(153.994 385.099)" clip-path="url(#clip-path-2)">
        <g id="_124594_更新済み_5" data-name="124594 [更新済み]" transform="translate(-59.71 -62.59)">
          <rect id="長方形_2969-3" data-name="長方形 2969" width="4.905" height="1.314" transform="translate(63.652 77.206)"/>
          <rect id="長方形_2970-3" data-name="長方形 2970" width="4.905" height="1.314" transform="translate(63.652 79.658)"/>
          <rect id="長方形_2971-3" data-name="長方形 2971" width="4.905" height="1.314" transform="translate(63.652 82.111)"/>
          <rect id="長方形_2972-3" data-name="長方形 2972" width="4.906" height="1.314" transform="translate(79.542 77.206)"/>
          <rect id="長方形_2973-3" data-name="長方形 2973" width="4.906" height="1.314" transform="translate(79.542 79.658)"/>
          <rect id="長方形_2974-3" data-name="長方形 2974" width="4.906" height="1.314" transform="translate(79.542 82.111)"/>
          <path id="パス_5059-3" data-name="パス 5059" d="M74.05,62.59A14.341,14.341,0,1,0,88.391,76.931,14.356,14.356,0,0,0,74.05,62.59ZM79.464,65.1a13.064,13.064,0,0,1,3.744,2.583H79.464Zm-10.657-.083v2.666H64.891A13.074,13.074,0,0,1,68.808,65.015Zm1.946,24.5a12.96,12.96,0,0,1-4.246-1.987h4.246Zm5.278.271a13.132,13.132,0,0,1-1.325.134V88.1H73.393v1.819a12.943,12.943,0,0,1-1.325-.134V87.532h3.964Zm1.314-.271V87.532h4.246A12.954,12.954,0,0,1,77.346,89.519Zm5.81-3.289a.56.56,0,0,0-.056-.011H65c-.02,0-.037.01-.056.011a12.965,12.965,0,0,1-1.2-17.235h6.377V64.513a12.921,12.921,0,0,1,8.029.063v4.418h6.206a12.964,12.964,0,0,1-1.2,17.235Z" transform="translate(0 0)"/>
          <path id="パス_5060-3" data-name="パス 5060" d="M164.638,179.519a3.159,3.159,0,1,0-3.159,3.159A3.163,3.163,0,0,0,164.638,179.519Zm-3.816,1.718a1.837,1.837,0,0,1,0-3.437Zm1.314,0V177.8a1.837,1.837,0,0,1,0,3.437Z" transform="translate(-92.132 -106.296)"/>
          <path id="パス_5061-3" data-name="パス 5061" d="M308.388,179.519a3.159,3.159,0,1,0-3.159,3.159A3.163,3.163,0,0,0,308.388,179.519Zm-3.816,1.718a1.837,1.837,0,0,1,0-3.437Zm1.314,0V177.8a1.837,1.837,0,0,1,0,3.437Z" transform="translate(-226.439 -106.296)"/>
          <path id="パス_5062-3" data-name="パス 5062" d="M234.95,282.989a1.556,1.556,0,1,0-1.314.024v1.648l-2.416,2.416.929.929,2.144-2.144,2.144,2.144.929-.929-2.416-2.417Z" transform="translate(-160.243 -203.156)"/>
        </g>
        <g id="_124594_更新済み_6" data-name="124594 [更新済み]" transform="translate(-25.71 -62.59)">
          <rect id="長方形_2969-4" data-name="長方形 2969" width="4.905" height="1.314" transform="translate(63.652 77.206)"/>
          <rect id="長方形_2970-4" data-name="長方形 2970" width="4.905" height="1.314" transform="translate(63.652 79.658)"/>
          <rect id="長方形_2971-4" data-name="長方形 2971" width="4.905" height="1.314" transform="translate(63.652 82.111)"/>
          <rect id="長方形_2972-4" data-name="長方形 2972" width="4.906" height="1.314" transform="translate(79.542 77.206)"/>
          <rect id="長方形_2973-4" data-name="長方形 2973" width="4.906" height="1.314" transform="translate(79.542 79.658)"/>
          <rect id="長方形_2974-4" data-name="長方形 2974" width="4.906" height="1.314" transform="translate(79.542 82.111)"/>
          <path id="パス_5059-4" data-name="パス 5059" d="M74.05,62.59A14.341,14.341,0,1,0,88.391,76.931,14.356,14.356,0,0,0,74.05,62.59ZM79.464,65.1a13.064,13.064,0,0,1,3.744,2.583H79.464Zm-10.657-.083v2.666H64.891A13.074,13.074,0,0,1,68.808,65.015Zm1.946,24.5a12.96,12.96,0,0,1-4.246-1.987h4.246Zm5.278.271a13.132,13.132,0,0,1-1.325.134V88.1H73.393v1.819a12.943,12.943,0,0,1-1.325-.134V87.532h3.964Zm1.314-.271V87.532h4.246A12.954,12.954,0,0,1,77.346,89.519Zm5.81-3.289a.56.56,0,0,0-.056-.011H65c-.02,0-.037.01-.056.011a12.965,12.965,0,0,1-1.2-17.235h6.377V64.513a12.921,12.921,0,0,1,8.029.063v4.418h6.206a12.964,12.964,0,0,1-1.2,17.235Z" transform="translate(0 0)"/>
          <path id="パス_5060-4" data-name="パス 5060" d="M164.638,179.519a3.159,3.159,0,1,0-3.159,3.159A3.163,3.163,0,0,0,164.638,179.519Zm-3.816,1.718a1.837,1.837,0,0,1,0-3.437Zm1.314,0V177.8a1.837,1.837,0,0,1,0,3.437Z" transform="translate(-92.132 -106.296)"/>
          <path id="パス_5061-4" data-name="パス 5061" d="M308.388,179.519a3.159,3.159,0,1,0-3.159,3.159A3.163,3.163,0,0,0,308.388,179.519Zm-3.816,1.718a1.837,1.837,0,0,1,0-3.437Zm1.314,0V177.8a1.837,1.837,0,0,1,0,3.437Z" transform="translate(-226.439 -106.296)"/>
          <path id="パス_5062-4" data-name="パス 5062" d="M234.95,282.989a1.556,1.556,0,1,0-1.314.024v1.648l-2.416,2.416.929.929,2.144-2.144,2.144,2.144.929-.929-2.416-2.417Z" transform="translate(-160.243 -203.156)"/>
        </g>
        <g id="_124594_更新済み_7" data-name="124594 [更新済み]" transform="translate(8.29 -62.59)">
          <rect id="長方形_2969-5" data-name="長方形 2969" width="4.905" height="1.314" transform="translate(63.652 77.206)"/>
          <rect id="長方形_2970-5" data-name="長方形 2970" width="4.905" height="1.314" transform="translate(63.652 79.658)"/>
          <rect id="長方形_2971-5" data-name="長方形 2971" width="4.905" height="1.314" transform="translate(63.652 82.111)"/>
          <rect id="長方形_2972-5" data-name="長方形 2972" width="4.906" height="1.314" transform="translate(79.542 77.206)"/>
          <rect id="長方形_2973-5" data-name="長方形 2973" width="4.906" height="1.314" transform="translate(79.542 79.658)"/>
          <rect id="長方形_2974-5" data-name="長方形 2974" width="4.906" height="1.314" transform="translate(79.542 82.111)"/>
          <path id="パス_5059-5" data-name="パス 5059" d="M74.05,62.59A14.341,14.341,0,1,0,88.391,76.931,14.356,14.356,0,0,0,74.05,62.59ZM79.464,65.1a13.064,13.064,0,0,1,3.744,2.583H79.464Zm-10.657-.083v2.666H64.891A13.074,13.074,0,0,1,68.808,65.015Zm1.946,24.5a12.96,12.96,0,0,1-4.246-1.987h4.246Zm5.278.271a13.132,13.132,0,0,1-1.325.134V88.1H73.393v1.819a12.943,12.943,0,0,1-1.325-.134V87.532h3.964Zm1.314-.271V87.532h4.246A12.954,12.954,0,0,1,77.346,89.519Zm5.81-3.289a.56.56,0,0,0-.056-.011H65c-.02,0-.037.01-.056.011a12.965,12.965,0,0,1-1.2-17.235h6.377V64.513a12.921,12.921,0,0,1,8.029.063v4.418h6.206a12.964,12.964,0,0,1-1.2,17.235Z" transform="translate(0 0)"/>
          <path id="パス_5060-5" data-name="パス 5060" d="M164.638,179.519a3.159,3.159,0,1,0-3.159,3.159A3.163,3.163,0,0,0,164.638,179.519Zm-3.816,1.718a1.837,1.837,0,0,1,0-3.437Zm1.314,0V177.8a1.837,1.837,0,0,1,0,3.437Z" transform="translate(-92.132 -106.296)"/>
          <path id="パス_5061-5" data-name="パス 5061" d="M308.388,179.519a3.159,3.159,0,1,0-3.159,3.159A3.163,3.163,0,0,0,308.388,179.519Zm-3.816,1.718a1.837,1.837,0,0,1,0-3.437Zm1.314,0V177.8a1.837,1.837,0,0,1,0,3.437Z" transform="translate(-226.439 -106.296)"/>
          <path id="パス_5062-5" data-name="パス 5062" d="M234.95,282.989a1.556,1.556,0,1,0-1.314.024v1.648l-2.416,2.416.929.929,2.144-2.144,2.144,2.144.929-.929-2.416-2.417Z" transform="translate(-160.243 -203.156)"/>
        </g>
        <g id="_124594_更新済み_8" data-name="124594 [更新済み]" transform="translate(42.29 -62.59)">
          <rect id="長方形_2969-6" data-name="長方形 2969" width="4.905" height="1.314" transform="translate(63.652 77.206)"/>
          <rect id="長方形_2970-6" data-name="長方形 2970" width="4.905" height="1.314" transform="translate(63.652 79.658)"/>
          <rect id="長方形_2971-6" data-name="長方形 2971" width="4.905" height="1.314" transform="translate(63.652 82.111)"/>
          <rect id="長方形_2972-6" data-name="長方形 2972" width="4.906" height="1.314" transform="translate(79.542 77.206)"/>
          <rect id="長方形_2973-6" data-name="長方形 2973" width="4.906" height="1.314" transform="translate(79.542 79.658)"/>
          <rect id="長方形_2974-6" data-name="長方形 2974" width="4.906" height="1.314" transform="translate(79.542 82.111)"/>
          <path id="パス_5059-6" data-name="パス 5059" d="M74.05,62.59A14.341,14.341,0,1,0,88.391,76.931,14.356,14.356,0,0,0,74.05,62.59ZM79.464,65.1a13.064,13.064,0,0,1,3.744,2.583H79.464Zm-10.657-.083v2.666H64.891A13.074,13.074,0,0,1,68.808,65.015Zm1.946,24.5a12.96,12.96,0,0,1-4.246-1.987h4.246Zm5.278.271a13.132,13.132,0,0,1-1.325.134V88.1H73.393v1.819a12.943,12.943,0,0,1-1.325-.134V87.532h3.964Zm1.314-.271V87.532h4.246A12.954,12.954,0,0,1,77.346,89.519Zm5.81-3.289a.56.56,0,0,0-.056-.011H65c-.02,0-.037.01-.056.011a12.965,12.965,0,0,1-1.2-17.235h6.377V64.513a12.921,12.921,0,0,1,8.029.063v4.418h6.206a12.964,12.964,0,0,1-1.2,17.235Z" transform="translate(0 0)"/>
          <path id="パス_5060-6" data-name="パス 5060" d="M164.638,179.519a3.159,3.159,0,1,0-3.159,3.159A3.163,3.163,0,0,0,164.638,179.519Zm-3.816,1.718a1.837,1.837,0,0,1,0-3.437Zm1.314,0V177.8a1.837,1.837,0,0,1,0,3.437Z" transform="translate(-92.132 -106.296)"/>
          <path id="パス_5061-6" data-name="パス 5061" d="M308.388,179.519a3.159,3.159,0,1,0-3.159,3.159A3.163,3.163,0,0,0,308.388,179.519Zm-3.816,1.718a1.837,1.837,0,0,1,0-3.437Zm1.314,0V177.8a1.837,1.837,0,0,1,0,3.437Z" transform="translate(-226.439 -106.296)"/>
          <path id="パス_5062-6" data-name="パス 5062" d="M234.95,282.989a1.556,1.556,0,1,0-1.314.024v1.648l-2.416,2.416.929.929,2.144-2.144,2.144,2.144.929-.929-2.416-2.417Z" transform="translate(-160.243 -203.156)"/>
        </g>
        <g id="_124594_更新済み_9" data-name="124594 [更新済み]" transform="translate(76.29 -62.59)">
          <rect id="長方形_2969-7" data-name="長方形 2969" width="4.905" height="1.314" transform="translate(63.652 77.206)"/>
          <rect id="長方形_2970-7" data-name="長方形 2970" width="4.905" height="1.314" transform="translate(63.652 79.658)"/>
          <rect id="長方形_2971-7" data-name="長方形 2971" width="4.905" height="1.314" transform="translate(63.652 82.111)"/>
          <rect id="長方形_2972-7" data-name="長方形 2972" width="4.906" height="1.314" transform="translate(79.542 77.206)"/>
          <rect id="長方形_2973-7" data-name="長方形 2973" width="4.906" height="1.314" transform="translate(79.542 79.658)"/>
          <rect id="長方形_2974-7" data-name="長方形 2974" width="4.906" height="1.314" transform="translate(79.542 82.111)"/>
          <path id="パス_5059-7" data-name="パス 5059" d="M74.05,62.59A14.341,14.341,0,1,0,88.391,76.931,14.356,14.356,0,0,0,74.05,62.59ZM79.464,65.1a13.064,13.064,0,0,1,3.744,2.583H79.464Zm-10.657-.083v2.666H64.891A13.074,13.074,0,0,1,68.808,65.015Zm1.946,24.5a12.96,12.96,0,0,1-4.246-1.987h4.246Zm5.278.271a13.132,13.132,0,0,1-1.325.134V88.1H73.393v1.819a12.943,12.943,0,0,1-1.325-.134V87.532h3.964Zm1.314-.271V87.532h4.246A12.954,12.954,0,0,1,77.346,89.519Zm5.81-3.289a.56.56,0,0,0-.056-.011H65c-.02,0-.037.01-.056.011a12.965,12.965,0,0,1-1.2-17.235h6.377V64.513a12.921,12.921,0,0,1,8.029.063v4.418h6.206a12.964,12.964,0,0,1-1.2,17.235Z" transform="translate(0 0)"/>
          <path id="パス_5060-7" data-name="パス 5060" d="M164.638,179.519a3.159,3.159,0,1,0-3.159,3.159A3.163,3.163,0,0,0,164.638,179.519Zm-3.816,1.718a1.837,1.837,0,0,1,0-3.437Zm1.314,0V177.8a1.837,1.837,0,0,1,0,3.437Z" transform="translate(-92.132 -106.296)"/>
          <path id="パス_5061-7" data-name="パス 5061" d="M308.388,179.519a3.159,3.159,0,1,0-3.159,3.159A3.163,3.163,0,0,0,308.388,179.519Zm-3.816,1.718a1.837,1.837,0,0,1,0-3.437Zm1.314,0V177.8a1.837,1.837,0,0,1,0,3.437Z" transform="translate(-226.439 -106.296)"/>
          <path id="パス_5062-7" data-name="パス 5062" d="M234.95,282.989a1.556,1.556,0,1,0-1.314.024v1.648l-2.416,2.416.929.929,2.144-2.144,2.144,2.144.929-.929-2.416-2.417Z" transform="translate(-160.243 -203.156)"/>
        </g>
      </g>
    </g>
  </g>
</svg>
