<svg xmlns="http://www.w3.org/2000/svg" width="166.033" height="166.033" viewBox="0 0 166.033 166.033">
  <g id="_124594_更新済み_xx" data-name="124594 [更新済み]xx" transform="matrix(0.819, 0.574, -0.574, 0.819, 68.379, 0)" opacity="0.65">
    <rect id="長方形_2900" data-name="長方形 2900" width="20.389" height="5.461" transform="translate(16.386 60.752)" fill="#f8f8f8"/>
    <g id="グループ_5525" data-name="グループ 5525" transform="translate(70.745 35.602)">
      <rect id="長方形_2901" data-name="長方形 2901" width="5.461" height="20.389" transform="translate(0.191 4.206) rotate(-50.372)" fill="#f8f8f8"/>
      <rect id="長方形_2902" data-name="長方形 2902" width="20.389" height="5.461" transform="translate(0 13.02) rotate(-39.628)" fill="#f8f8f8"/>
    </g>
    <g id="グループ_5526" data-name="グループ 5526" transform="translate(30.77 35.886)">
      <rect id="長方形_2903" data-name="長方形 2903" width="5.461" height="20.389" transform="translate(0.194 4.206) rotate(-50.372)" fill="#f8f8f8"/>
      <rect id="長方形_2904" data-name="長方形 2904" width="20.389" height="5.461" transform="translate(0 13.012) rotate(-39.628)" fill="#f8f8f8"/>
    </g>
    <rect id="長方形_2905" data-name="長方形 2905" width="20.389" height="5.461" transform="translate(16.386 70.945)" fill="#f8f8f8"/>
    <rect id="長方形_2906" data-name="長方形 2906" width="20.389" height="5.461" transform="translate(16.386 81.141)" fill="#f8f8f8"/>
    <rect id="長方形_2907" data-name="長方形 2907" width="20.392" height="5.461" transform="translate(82.432 60.752)" fill="#f8f8f8"/>
    <rect id="長方形_2908" data-name="長方形 2908" width="20.392" height="5.461" transform="translate(82.432 70.945)" fill="#f8f8f8"/>
    <rect id="長方形_2909" data-name="長方形 2909" width="20.392" height="5.461" transform="translate(82.432 81.141)" fill="#f8f8f8"/>
    <path id="パス_4071" data-name="パス 4071" d="M59.605,0a59.608,59.608,0,1,0,59.608,59.608A59.673,59.673,0,0,0,59.605,0ZM82.11,10.423A54.3,54.3,0,0,1,97.674,21.159H82.11Zm-44.295-.344V21.159H21.536A54.341,54.341,0,0,1,37.815,10.078ZM45.906,111.93a53.871,53.871,0,0,1-17.65-8.257h17.65Zm21.937,1.128a54.617,54.617,0,0,1-5.508.557v-7.561H56.875v7.561a53.81,53.81,0,0,1-5.507-.557v-9.385H67.843ZM73.3,111.93v-8.257h17.65A53.847,53.847,0,0,1,73.3,111.93ZM97.453,98.259a2.352,2.352,0,0,0-.232-.046H21.989c-.082,0-.153.041-.232.046A53.89,53.89,0,0,1,16.768,26.62H43.276V7.992a53.71,53.71,0,0,1,33.373.262V26.62h25.8a53.886,53.886,0,0,1-4.992,71.639Z" transform="translate(0 0)" fill="#f8f8f8"/>
    <path id="パス_4072" data-name="パス 4072" d="M15.5,12.3a6.469,6.469,0,1,0-5.461.1v6.848L0,29.291l3.861,3.861,8.912-8.913,8.912,8.913,3.861-3.861L15.5,19.245Z" transform="translate(46.832 59.373)" fill="#f8f8f8"/>
  </g>
</svg>
