<svg id="グループ_92" data-name="グループ 92" xmlns="http://www.w3.org/2000/svg" width="330.149" height="101.822" viewBox="0 0 330.149 101.822">
  <rect id="要素_-_1" data-name="要素 - 1" width="97.847" height="8.895" transform="translate(0 92.926)" fill="#fdfdfd"/>
  <g id="グループ_91" data-name="グループ 91" transform="translate(3.942)">
    <path id="パス_1854" data-name="パス 1854" d="M520.864,36.588c2.742,0,4.641-.566,5.805-1.73a11.8,11.8,0,0,0,2.563-4.734,17.206,17.206,0,0,0,1.007-5.214c0-1.868-.963-5-7.418-5-1.731,0-4.191.695-6.09,4a15.9,15.9,0,0,0-2.019,8.022C514.712,33.331,515.311,36.588,520.864,36.588Z" transform="translate(-304.399 -11.621)" fill="#fdfdfd"/>
    <path id="パス_1855" data-name="パス 1855" d="M332.743,57.86c-2.577,2.2-5.2,4.4-7.8,6.535a41.182,41.182,0,0,1-9.78,6.337,45.093,45.093,0,0,0,3.109-7.6,39.126,39.126,0,0,0,1.862-11.4,16.92,16.92,0,0,0-1.481-7,33.83,33.83,0,0,0-4.287-6.643q1.544-2.188,3.277-4.671c1.677-2.4,2.491-4.428,2.491-6.2,0-.954-.354-3.247-3.637-3.929l-.141-.03-5.6-.238a7.456,7.456,0,0,0-6.793,4.141,16.064,16.064,0,0,0-2.007,7.882,3.686,3.686,0,0,0,.535,1.9,106.373,106.373,0,0,1-6.511,9.7c-2.253,3-5.043,6.329-8.339,9.935l-.194.231-1.227,1.071c-5.92,5.171-11.215,8.94-15.739,11.2A29.309,29.309,0,0,1,257.358,72.4a4.419,4.419,0,0,1-4.295-2.615,11.231,11.231,0,0,1-1.051-4.8l1.3-.557c6.559-2.685,11.2-5.05,14.185-7.23,5.831-4.249,8.788-9.341,8.788-15.134,0-6.788-3.9-10.526-10.986-10.526s-13.356,3.506-18.675,10.42a37.143,37.143,0,0,0-6.807,14.22l-1.859,1.736c-2.276,2.124-4.582,4.2-6.84,6.157-6.634,5.6-9.046,6.4-9.768,6.478-.153-.254-.542-1.155-.542-3.738a48.928,48.928,0,0,1,1.451-10.762c.979-4.22,2.668-9.936,5.019-16.989l1.932-5.795H215.862l-.444,1.126a130.907,130.907,0,0,0-5.484,17.038q-.464,1.91-.818,3.728l-2.4,2.932a13.078,13.078,0,0,1-3.408,3.144,6.272,6.272,0,0,1-3.156.808c-2.02,0-4.366-1.407-6.985-4.186a68.464,68.464,0,0,0,3.756-10.5,40.627,40.627,0,0,0,1.555-10.124c0-3.094-1.989-4.2-3.85-4.2a15.575,15.575,0,0,0-6.468,1.3c-1.8.788-3.278,3.258-4.945,8.261a37.8,37.8,0,0,0-2.221,11.67v.122l.417,3.023a44.473,44.473,0,0,1-5.371,10.769c-1.684,2.308-3.256,3.528-4.547,3.528-1.481,0-2.365-3.035-2.365-8.119a69.845,69.845,0,0,1,2.259-16.526c.377-1.66,1.454-5.619,3.2-11.763l.694-2.443L162,33.815l-.371,1.133a125.075,125.075,0,0,0-4.086,15.531q-.573,3.006-.911,5.98l-1.62,1.415c-5.92,5.171-11.216,8.94-15.739,11.2A29.309,29.309,0,0,1,126.145,72.4a4.419,4.419,0,0,1-4.295-2.615,11.232,11.232,0,0,1-1.051-4.8l1.3-.557c6.559-2.685,11.2-5.05,14.185-7.23,5.831-4.249,8.788-9.341,8.788-15.134,0-6.788-3.9-10.526-10.986-10.526a20.973,20.973,0,0,0-13.643,5.137l.251-.295c-4.53.646-10.79-5.23-11.1-5.522l.011-.016-1.15-1.034c-1.488-1.338-2.766-2.58-3.774-3.659q-.618-.692-1.285-1.491c2.6-7.852,3.921-14.306,3.921-19.2,0-1.872-.283-3.053-.921-3.833a4.41,4.41,0,0,0-3.62-1.284c-3.722,0-4.976.368-5.653.689-1.188.562-2.114,1.8-2.928,3.945a46.106,46.106,0,0,0-2.98,15.331A14.42,14.42,0,0,0,91.478,23a12.274,12.274,0,0,0,.558,2.009A168.761,168.761,0,0,1,79.8,55.852C72.893,68.962,69.566,69.98,68.71,69.98c-.707,0-1.235-1.2-1.488-1.92a26.9,26.9,0,0,1-.992-8.386c0-2.92.268-6.962.8-12.016s1.1-9.194,1.7-12.257l3.321-16.157c.035-.14.306-1.1,2.047-6.932a27.166,27.166,0,0,0,1.343-7.771A3.765,3.765,0,0,0,73.513.955,10.207,10.207,0,0,0,68.941.23c-2.856,0-4.774.587-5.865,1.794-.767.846-1.6,2.646-2.463,10.022-.592,5.022-3,12.423-7.173,22A139.294,139.294,0,0,1,39.527,59.21C32.781,68.581,29.1,69.98,27.5,69.98c-.332,0-1.214,0-1.214-2.942a44.016,44.016,0,0,1,1.329-8.184c.89-3.932,1.579-6.839,2.029-8.589l4.162-14.278c3.924-13.8,5.831-22.953,5.831-27.994C39.642,1.039,36.221,0,34.181,0,31.708,0,28.4,1.5,24.056,4.588A113.245,113.245,0,0,0,10.248,16.635l-.778.778,3.266,9.8,3.84-3.361a85.386,85.386,0,0,1,7.156-5.58c.7-.478,1.256-.84,1.7-1.114a25.308,25.308,0,0,1-1.02,4.743l-8.4,29.68a57.892,57.892,0,0,0-2.6,16.039,18.023,18.023,0,0,0,3.1,10.829,10.089,10.089,0,0,0,8.46,4.531c4.436,0,9.1-2.251,13.874-6.693A73.5,73.5,0,0,0,49.835,62.476q1.756-2.736,3.411-5.59-.012.988-.011,2.213a45.749,45.749,0,0,0,1.937,14.273c2.182,6.374,5.923,9.605,11.121,9.605,4.69,0,9.494-3.021,14.294-9,3.521-4.518,7.194-10.9,10.918-18.97,2.155-4.7,4.688-10.932,7.532-18.539l.425-1.144.021.027-.03.013c1.665,2.349,12.892,8.419,14.176,9.109a37.474,37.474,0,0,0-6.068,20.842A22.61,22.61,0,0,0,111,77.6a12.01,12.01,0,0,0,10.77,5.835c11.266,0,22.99-4.27,34.858-12.688a18.635,18.635,0,0,0,2.808,7.195,11.123,11.123,0,0,0,9.64,5.148c7.618,0,14.065-5.026,19.185-14.947,3.8,3.276,7.827,4.933,12.007,4.933a15.7,15.7,0,0,0,7.788-1.974,30.156,30.156,0,0,0,.607,4.854c1.4,6.087,4.785,7.364,7.373,7.364,3.739,0,8.1-1.513,13.337-4.623a56.943,56.943,0,0,0,10.1-7.521,21.806,21.806,0,0,0,2.74,6.424,12.01,12.01,0,0,0,10.77,5.835c11.454,0,20.334-2.272,32.406-10.973,0,0,7.476-6.075,9.33-8.046s3.448-3.8,4.769-5.47c1.923-2.387,4.548-6.025,7.823-10.835.038.135.07.268.1.4a16.434,16.434,0,0,1,.312,3.219c0,2.763-.911,6.579-2.706,11.343-1.936,5.135-3.1,6.156-3.352,6.329a22.859,22.859,0,0,1-3.357-.431,25.105,25.105,0,0,0-4.23-.489,4.122,4.122,0,0,0-3.893,2.95,16.924,16.924,0,0,0-.878,6.2,5.014,5.014,0,0,0,1.675,4.233c.994.76,2.49,1.114,4.707,1.114a26.869,26.869,0,0,0,6.234-.626,18.026,18.026,0,0,0,4.017-1.491,17.777,17.777,0,0,0,6.209,1.426,19.725,19.725,0,0,0,8.933-2.617,100.62,100.62,0,0,0,12.206-7.9l2.394-1.915v-14.5ZM258.03,46.373c2.242-2.672,4.378-4.026,6.349-4.026.869,0,.869.13.869.753,0,1.734-1.215,3.615-3.612,5.591a33.215,33.215,0,0,1-7.535,4.5A22.758,22.758,0,0,1,258.03,46.373Zm-131.213,0c2.242-2.672,4.378-4.026,6.349-4.026.869,0,.869.13.869.753,0,1.734-1.215,3.615-3.611,5.591a33.215,33.215,0,0,1-7.535,4.5A22.758,22.758,0,0,1,126.817,46.373Z" transform="translate(-9.47)" fill="#fdfdfd"/>
  </g>
</svg>
