<svg xmlns="http://www.w3.org/2000/svg" xmlns:xlink="http://www.w3.org/1999/xlink" width="1943" height="199.249" viewBox="0 0 1943 199.249">
  <defs>
    <clipPath id="clip-path">
      <rect id="長方形_3023" data-name="長方形 3023" width="1920" height="199.249" transform="translate(-15169 7026.175)" fill="#252525"/>
    </clipPath>
    <filter id="パス_4967" x="1487.689" y="-24.006" width="251.476" height="251.478" filterUnits="userSpaceOnUse">
      <feOffset dy="3" input="SourceAlpha"/>
      <feGaussianBlur stdDeviation="3" result="blur"/>
      <feFlood flood-opacity="0.161"/>
      <feComposite operator="in" in2="blur"/>
      <feComposite in="SourceGraphic"/>
    </filter>
    <filter id="パス_4967-2" x="307.806" y="-43.854" width="292.956" height="292.958" filterUnits="userSpaceOnUse">
      <feOffset dy="3" input="SourceAlpha"/>
      <feGaussianBlur stdDeviation="3" result="blur-2"/>
      <feFlood flood-opacity="0.161"/>
      <feComposite operator="in" in2="blur-2"/>
      <feComposite in="SourceGraphic"/>
    </filter>
    <filter id="パス_4967-3" x="548.522" y="46.388" width="187.121" height="187.123" filterUnits="userSpaceOnUse">
      <feOffset dy="3" input="SourceAlpha"/>
      <feGaussianBlur stdDeviation="3" result="blur-3"/>
      <feFlood flood-opacity="0.161"/>
      <feComposite operator="in" in2="blur-3"/>
      <feComposite in="SourceGraphic"/>
    </filter>
  </defs>
  <g id="グループ_5878" data-name="グループ 5878" transform="translate(15187 -7099.26)">
    <rect id="長方形_3022" data-name="長方形 3022" width="1920" height="199.249" transform="translate(-15187 7099.26)" fill="#252525"/>
    <g id="マスクグループ_1849" data-name="マスクグループ 1849" transform="translate(5 73.085)" clip-path="url(#clip-path)">
      <g id="グループ_5877" data-name="グループ 5877" transform="translate(-14937.857 2261.88)">
        <g id="グループ_5633" data-name="グループ 5633" transform="translate(1216.193 4777.813) rotate(-11)" style="mix-blend-mode: screen;isolation: isolate">
          <g id="グループ_5627" data-name="グループ 5627" transform="translate(-1.255 -14.506)" opacity="0.55">
            <g id="_124594_更新済み_" data-name="124594 [更新済み]" transform="translate(91.842 0) rotate(30)" opacity="0.44" style="isolation: isolate">
              <rect id="長方形_2937" data-name="長方形 2937" width="31.415" height="8.414" transform="translate(25.247 93.605)" fill="#f8feff"/>
              <rect id="長方形_2938" data-name="長方形 2938" width="31.415" height="8.414" transform="translate(25.247 109.311)" fill="#f8feff"/>
              <rect id="長方形_2939" data-name="長方形 2939" width="31.415" height="8.414" transform="translate(25.247 125.02)" fill="#f8feff"/>
              <rect id="長方形_2940" data-name="長方形 2940" width="31.419" height="8.414" transform="translate(127.01 93.605)" fill="#f8feff"/>
              <rect id="長方形_2941" data-name="長方形 2941" width="31.419" height="8.414" transform="translate(127.01 109.311)" fill="#f8feff"/>
              <rect id="長方形_2942" data-name="長方形 2942" width="31.419" height="8.414" transform="translate(127.01 125.02)" fill="#f8feff"/>
              <g transform="matrix(0.95, -0.33, 0.33, 0.95, -1465.83, 523.77)" filter="url(#パス_4967)">
                <path id="パス_4967-4" data-name="パス 4967" d="M91.838,0a91.842,91.842,0,1,0,91.842,91.842A91.943,91.943,0,0,0,91.838,0Zm34.675,16.059A83.67,83.67,0,0,1,150.494,32.6H126.514Zm-68.249-.53V32.6H33.182A83.728,83.728,0,0,1,58.265,15.529ZM70.731,172.46a83,83,0,0,1-27.2-12.722h27.2Zm33.8,1.738a84.107,84.107,0,0,1-8.486.858v-11.65H87.631v11.65a82.9,82.9,0,0,1-8.486-.858v-14.46h25.386Zm8.414-1.738V159.738h27.2A82.963,82.963,0,0,1,112.946,172.46Zm37.208-21.065a3.587,3.587,0,0,0-.358-.072H33.88c-.126,0-.236.063-.358.072A83.032,83.032,0,0,1,25.836,41.016H66.679v-28.7a82.754,82.754,0,0,1,51.42.4v28.3h39.745a83.026,83.026,0,0,1-7.691,110.379Z" transform="translate(1556.49 -18.01) rotate(19)" fill="#f8feff"/>
              </g>
              <path id="パス_4969" data-name="パス 4969" d="M42.883,18.054C60.317,26.477,34.785,0,24.829,0S-12.652,27.617,6.775,18.054,25.449,9.631,42.883,18.054Z" transform="translate(99.182 55.773)" fill="#f8feff"/>
              <path id="パス_4971" data-name="パス 4971" d="M42.883,18.054C60.317,26.477,34.785,0,24.829,0S-12.652,27.617,6.775,18.054,25.449,9.631,42.883,18.054Z" transform="translate(32.863 54.93)" fill="#f8feff"/>
              <path id="パス_4970" data-name="パス 4970" d="M23.888,18.949a9.968,9.968,0,1,0-8.414.156V29.656L0,45.13l5.949,5.949L19.681,37.347,33.413,51.079l5.949-5.949L23.888,29.652Z" transform="translate(72.157 91.481)" fill="#f8feff"/>
            </g>
          </g>
        </g>
        <g id="グループ_5691" data-name="グループ 5691" transform="translate(12.342 4914.239) rotate(-60)" opacity="0.55">
          <g id="_124594_更新済み_2" data-name="124594 [更新済み]" transform="translate(100.642 0) rotate(30)" opacity="0.44" style="isolation: isolate">
            <rect id="長方形_2937-2" data-name="長方形 2937" width="34.425" height="9.221" transform="translate(27.666 102.574)" fill="#f8feff"/>
            <rect id="長方形_2938-2" data-name="長方形 2938" width="34.425" height="9.221" transform="translate(27.666 119.784)" fill="#f8feff"/>
            <rect id="長方形_2939-2" data-name="長方形 2939" width="34.425" height="9.221" transform="translate(27.666 136.999)" fill="#f8feff"/>
            <rect id="長方形_2940-2" data-name="長方形 2940" width="34.43" height="9.221" transform="translate(139.18 102.574)" fill="#f8feff"/>
            <rect id="長方形_2941-2" data-name="長方形 2941" width="34.43" height="9.221" transform="translate(139.18 119.784)" fill="#f8feff"/>
            <rect id="長方形_2942-2" data-name="長方形 2942" width="34.43" height="9.221" transform="translate(139.18 136.999)" fill="#f8feff"/>
            <g transform="matrix(0.87, 0.5, -0.5, 0.87, -242.97, -212.78)" filter="url(#パス_4967-2)">
              <path id="パス_4967-5" data-name="パス 4967" d="M100.638,0A100.642,100.642,0,1,0,201.28,100.642,100.753,100.753,0,0,0,100.638,0Zm38,17.6a91.687,91.687,0,0,1,26.279,18.128H138.636Zm-74.788-.581V35.725H36.361A91.75,91.75,0,0,1,63.848,17.017Zm13.66,171.968a90.956,90.956,0,0,1-29.8-13.941h29.8Zm37.039,1.9a92.175,92.175,0,0,1-9.3.94V179.063H96.028v12.766a90.853,90.853,0,0,1-9.3-.94V175.043h27.818Zm9.221-1.9V175.043h29.8A90.913,90.913,0,0,1,123.768,188.985ZM164.541,165.9a3.931,3.931,0,0,0-.392-.078H37.127c-.138,0-.258.069-.392.078A90.988,90.988,0,0,1,28.312,44.946H73.068V13.494a90.683,90.683,0,0,1,56.347.443V44.946h43.553A90.982,90.982,0,0,1,164.541,165.9Z" transform="matrix(0.87, -0.5, 0.5, 0.87, 316.81, 62.79)" fill="#f8feff"/>
            </g>
            <path id="パス_4969-2" data-name="パス 4969" d="M46.992,19.784C66.1,29.014,38.118,0,27.208,0S-13.864,30.264,7.424,19.784,27.888,10.554,46.992,19.784Z" transform="translate(108.685 61.117)" fill="#f8feff"/>
            <path id="パス_4971-2" data-name="パス 4971" d="M46.992,19.784C66.1,29.014,38.118,0,27.208,0S-13.864,30.264,7.424,19.784,27.888,10.554,46.992,19.784Z" transform="translate(36.012 60.193)" fill="#f8feff"/>
            <path id="パス_4970-2" data-name="パス 4970" d="M26.177,20.765a10.923,10.923,0,1,0-9.221.171V32.5L0,49.454l6.519,6.519L21.567,40.925,36.615,55.973l6.519-6.519L26.177,32.493Z" transform="translate(79.071 100.246)" fill="#f8feff"/>
          </g>
        </g>
        <g id="グループ_5692" data-name="グループ 5692" transform="translate(267.733 4882.221) rotate(-14)" opacity="0.55">
          <g id="_124594_更新済み_3" data-name="124594 [更新済み]" transform="translate(87.012 -45.851) rotate(30)" opacity="0.44" style="isolation: isolate">
            <rect id="長方形_2937-3" data-name="長方形 2937" width="23.385" height="6.263" transform="translate(18.794 69.678)" fill="#f8feff"/>
            <rect id="長方形_2938-3" data-name="長方形 2938" width="23.385" height="6.263" transform="translate(18.794 81.369)" fill="#f8feff"/>
            <rect id="長方形_2939-3" data-name="長方形 2939" width="23.385" height="6.263" transform="translate(18.794 93.063)" fill="#f8feff"/>
            <rect id="長方形_2940-3" data-name="長方形 2940" width="23.388" height="6.263" transform="translate(94.544 69.678)" fill="#f8feff"/>
            <rect id="長方形_2941-3" data-name="長方形 2941" width="23.388" height="6.263" transform="translate(94.544 81.369)" fill="#f8feff"/>
            <rect id="長方形_2942-3" data-name="長方形 2942" width="23.388" height="6.263" transform="translate(94.544 93.063)" fill="#f8feff"/>
            <g transform="matrix(0.96, -0.28, 0.28, 0.96, -586.59, 113.7)" filter="url(#パス_4967-3)">
              <path id="パス_4967-6" data-name="パス 4967" d="M68.363,0a68.366,68.366,0,1,0,68.366,68.366A68.441,68.441,0,0,0,68.363,0ZM94.175,11.954a62.283,62.283,0,0,1,17.851,12.314H94.175Zm-50.8-.395V24.268H24.7A62.326,62.326,0,0,1,43.372,11.559Zm9.279,116.817a61.786,61.786,0,0,1-20.244-9.47H52.651Zm25.16,1.293a62.608,62.608,0,0,1-6.317.639v-8.672H65.231v8.672a61.714,61.714,0,0,1-6.317-.639V118.906h18.9Zm6.263-1.293v-9.47h20.244A61.757,61.757,0,0,1,84.075,128.377Zm27.7-15.681a2.673,2.673,0,0,0-.266-.053H25.22c-.094,0-.175.047-.266.053a61.808,61.808,0,0,1-5.722-82.164h30.4V9.167a61.6,61.6,0,0,1,38.276.3V30.531H117.5a61.8,61.8,0,0,1-5.725,82.164Z" transform="translate(595.21 52.39) rotate(16)" fill="#f8feff"/>
            </g>
            <path id="パス_4969-3" data-name="パス 4969" d="M31.922,13.439C44.9,19.709,25.894,0,18.482,0S-9.418,20.558,5.043,13.439,18.944,7.169,31.922,13.439Z" transform="translate(73.829 41.517)" fill="#f8feff"/>
            <path id="パス_4971-3" data-name="パス 4971" d="M31.922,13.439C44.9,19.709,25.894,0,18.482,0S-9.418,20.558,5.043,13.439,18.944,7.169,31.922,13.439Z" transform="translate(24.463 40.889)" fill="#f8feff"/>
            <path id="パス_4970-3" data-name="パス 4970" d="M17.782,14.105a7.42,7.42,0,1,0-6.264.116v7.854L0,33.594l4.428,4.428L14.65,27.8,24.872,38.023,29.3,33.594,17.782,22.073Z" transform="translate(53.713 68.097)" fill="#f8feff"/>
          </g>
        </g>
        <g id="_142820_更新済み_" data-name="142820 [更新済み]" transform="translate(510.202 4801.49) rotate(-13)" opacity="0.22">
          <path id="パス_4073" data-name="パス 4073" d="M0,14.183l6.275,5.354A32.093,32.093,0,0,1,30.725,8.25V0A40.342,40.342,0,0,0,0,14.183Z" transform="translate(26.008 25.62)" fill="#f8feff"/>
          <path id="パス_4074" data-name="パス 4074" d="M93.175,48.268H92.23C88.5,31.95,76.621,19.408,61.912,15.361v-4.81C61.912,4.734,57.526,0,52.138,0s-9.774,4.734-9.774,10.551v4.572C27.171,18.867,14.9,31.56,11.083,48.268h-1.04C4.5,48.268,0,53.134,0,59.112S4.5,69.954,10.043,69.954h.89c4.572,19.979,21.349,34.313,40.575,34.313C70.915,104.267,87.533,90,92.1,69.954h1.083c5.538,0,10.046-4.863,10.046-10.841S98.713,48.268,93.175,48.268Zm-44.7-37.717a3.668,3.668,0,1,1,7.315,0V14.2a38.234,38.234,0,0,0-4.141-.241c-1.07,0-2.125.066-3.177.152V10.551Zm3.177,10.006c15.905,0,29.875,11.482,34.276,27.714H17.376C21.771,32.016,35.682,20.557,51.655,20.557Zm3.1,76.952V87.9A7.814,7.814,0,0,0,58.8,80.95a7.5,7.5,0,0,0-7.193-7.764,7.5,7.5,0,0,0-7.193,7.764A7.814,7.814,0,0,0,48.462,87.9v9.617C33.841,96.162,21.349,85.14,17.23,69.954H85.768C81.683,85.126,69.4,96.086,54.756,97.509ZM93.175,63.351H10.04a4.253,4.253,0,0,1,0-8.481H93.175a4.253,4.253,0,0,1,0,8.481Z" transform="translate(0 0)" fill="#f8feff"/>
        </g>
        <g id="_142820_更新済み_2" data-name="142820 [更新済み]" transform="translate(1038.02 4768.762) rotate(39)" opacity="0.26">
          <path id="パス_4073-2" data-name="パス 4073" d="M0,13.627l6.029,5.145A30.835,30.835,0,0,1,29.52,7.927V0A38.76,38.76,0,0,0,0,13.627Z" transform="translate(37.404 32.176)" fill="#f8feff"/>
          <path id="パス_4074-2" data-name="パス 4074" d="M120.761,57.951h-1.225A54.387,54.387,0,0,0,80.242,18.442V12.668a12.667,12.667,0,1,0-25.335,0v5.489A54.2,54.2,0,0,0,14.364,57.951H13.016a13.018,13.018,0,0,0,0,26.036H14.17a54.173,54.173,0,0,0,105.192,0h1.4a13.018,13.018,0,1,0,0-26.036ZM62.83,12.668a4.74,4.74,0,1,1,9.481,0v4.376a53.473,53.473,0,0,0-5.367-.289c-1.387,0-2.755.079-4.118.182V12.668Zm4.118,12.013a46.449,46.449,0,0,1,44.423,33.274H22.521A46.334,46.334,0,0,1,66.948,24.681Zm4.019,92.39V105.537a9.322,9.322,0,1,0-8.157,0v11.546a46.473,46.473,0,0,1-40.48-33.1h88.831A46.144,46.144,0,0,1,70.967,117.071ZM120.761,76.06H13.012a5.091,5.091,0,0,1,0-10.182H120.761a5.091,5.091,0,1,1,0,10.182Z" transform="translate(0 0)" fill="#f8feff"/>
        </g>
        <g id="_142820_更新済み_3" data-name="142820 [更新済み]" transform="translate(1154.744 4875.679) rotate(3)" opacity="0.26">
          <path id="パス_4073-3" data-name="パス 4073" d="M0,7.7,3.405,10.6A17.416,17.416,0,0,1,16.673,4.477V0A21.892,21.892,0,0,0,0,7.7Z" transform="translate(21.126 18.173)" fill="#f8feff"/>
          <path id="パス_4074-3" data-name="パス 4074" d="M68.208,32.732h-.692A30.718,30.718,0,0,0,45.322,10.416V7.155a7.155,7.155,0,1,0-14.31,0v3.1a30.611,30.611,0,0,0-22.9,22.476H7.352a7.353,7.353,0,0,0,0,14.706H8a30.6,30.6,0,0,0,59.414,0h.792a7.353,7.353,0,1,0,0-14.706ZM35.487,7.155a2.677,2.677,0,1,1,5.355,0V9.626a30.194,30.194,0,0,0-3.031-.163c-.783,0-1.556.045-2.326.1V7.155Zm2.326,6.785A26.235,26.235,0,0,1,62.9,32.734H12.72A26.17,26.17,0,0,1,37.813,13.94Zm2.27,52.183V59.609a5.265,5.265,0,1,0-4.607,0V66.13A26.248,26.248,0,0,1,12.613,47.437H62.786A26.063,26.063,0,0,1,40.083,66.123ZM68.208,42.96H7.35a2.876,2.876,0,0,1,0-5.751H68.208a2.876,2.876,0,1,1,0,5.751Z" transform="translate(0 0)" fill="#f8feff"/>
        </g>
      </g>
    </g>
  </g>
</svg>
